<svg width="160" height="42" viewBox="0 0 160 42"  xmlns="http://www.w3.org/2000/svg">
<path d="M49.2373 10.8456V0H55.44V34.2808C53.5742 34.2808 51.7617 34.3435 49.9551 34.2301C49.5814 34.2062 49.2491 33.5373 48.819 33.0804C42.5035 35.7022 36.4965 35.5559 31.8096 29.4761C28.7394 25.4926 28.6326 18.5588 31.7117 14.42C36.3393 8.20292 42.4501 8.1193 49.2402 10.8456H49.2373ZM49.2373 21.9272V20.1504C49.2373 16.3282 48.2821 15.289 44.3635 14.859C44.0698 14.8262 43.7761 14.7784 43.4824 14.7605C40.433 14.5694 37.5882 16.1938 36.3423 18.8306C35.1409 21.3718 35.6897 24.8297 37.609 26.8304C40.2491 29.5836 45.9386 29.8016 48.7419 27.2097C49.0445 26.932 49.1928 26.3676 49.2135 25.9256C49.2729 24.5968 49.2343 23.262 49.2402 21.9272H49.2373Z" fill="currentColor"/>
<path d="M133.979 0.00597227H140.193V10.8576C147.173 8.06555 153.432 8.20292 157.968 14.7724C160.869 18.9739 160.522 25.7733 157.68 29.4851C153.652 34.7497 149.104 35.6724 140.368 32.9669C140.294 33.3492 140.22 33.7224 140.128 34.1942H133.979V0.00597227ZM140.241 21.76H140.253C140.253 23.0948 140.309 24.4296 140.235 25.7584C140.184 26.6811 140.561 27.2306 141.315 27.6576C143.557 28.9297 145.954 29.3866 148.44 28.7475C151.172 28.0458 153.127 26.3258 153.634 23.471C154.138 20.6342 153.518 18.0392 150.997 16.2565C147.844 14.0289 144.613 14.4529 141.365 16.0744C140.52 16.4954 140.143 17.0688 140.22 18.0572C140.315 19.2845 140.244 20.5237 140.244 21.76H140.241Z" fill="currentColor"/>
<path d="M24.6813 22.5841C20.9822 27.365 17.3543 32.0532 13.4268 37.1326H84.5197V42H0.184737C-0.108938 40.0471 -0.236493 41.2027 1.26154 39.3991C5.41748 34.3913 9.36874 29.2104 13.3971 24.0951C13.7739 23.6144 14.1239 23.1127 14.557 22.5214C10.4841 17.1076 6.52099 11.6877 2.37098 6.41721C0.864044 4.50309 0.330091 2.58301 0.881843 0.13139H37.2322V4.97192H11.2465C15.0346 10.0543 20.9911 17.6331 24.6813 22.5841Z" fill="currentColor"/>
<path d="M128.114 9.63029V34.1644H122.045C121.994 33.6478 121.947 33.167 121.882 32.5011C118.236 34.5914 114.48 35.3529 110.491 33.9643C108.141 33.1461 106.225 31.7157 104.783 29.6882C101.511 25.0925 101.603 18.3528 104.976 13.7004C108.361 9.02709 113.318 8.20889 121.888 10.9412C121.944 10.5142 121.997 10.0961 122.057 9.63029H128.114ZM121.965 21.8884V20.1116C121.965 16.3999 120.944 15.286 117.162 14.865C116.818 14.8262 116.477 14.7784 116.133 14.7575C113.226 14.5664 110.375 16.1371 109.165 18.5947C107.815 21.333 108.248 24.4087 110.313 26.705C112.623 29.2761 116.809 29.7688 120.398 27.9263C121.502 27.362 122.166 26.6692 121.994 25.2866C121.855 24.1698 121.965 23.0201 121.965 21.8854V21.8884Z" fill="currentColor"/>
<path d="M84.5464 34.2092H78.5306C78.4416 33.7672 78.3555 33.3551 78.314 33.1461C76.2257 33.6478 74.2174 34.3674 72.1617 34.5586C69.6017 34.7974 67.0417 34.4242 64.8109 32.8983C62.245 31.1424 61.3847 28.4519 61.2127 25.5972C60.9783 21.757 61.0584 17.8989 61.0139 14.0468C60.9961 12.6224 61.0139 11.198 61.0139 9.67209H67.2078C67.2345 10.2365 67.2819 10.762 67.2819 11.2906C67.2879 15.0442 67.2523 18.7977 67.3057 22.5513C67.3235 23.6711 67.4985 24.8118 67.7655 25.9047C68.1867 27.6247 69.4385 28.6311 71.1294 28.8013C72.5206 28.9416 73.9979 28.9267 75.3535 28.6132C77.9907 28.007 78.3852 27.344 78.3852 24.6386C78.3852 19.7025 78.3852 14.7664 78.3852 9.69897H84.5464V34.2092Z" fill="currentColor"/>
<path d="M160 37.5835C160 39.8351 159.706 38.7899 159.7 40.7309C159.7 41.0713 159.665 41.4117 159.635 41.9373H89.1889C89.1889 27.0245 89.4855 15.1337 89.4855 0.13139H98.3847V37.5835H160Z" fill="currentColor"/>
</svg>
