<?xml version="1.0" encoding="utf-8"?>
<!-- Generator: Adobe Illustrator 28.0.0, SVG Export Plug-In . SVG Version: 6.00 Build 0)  -->
<svg version="1.1" id="Layer_1" xmlns="http://www.w3.org/2000/svg" xmlns:xlink="http://www.w3.org/1999/xlink" x="0px" y="0px"
	 viewBox="0 0 750 500" style="enable-background:new 0 0 750 500;" xml:space="preserve">
<style type="text/css">
	.st0{fill:#1A5EB3;}
	.st1{opacity:0.8;fill:#FFFFFF;enable-background:new    ;}
	.st2{opacity:0.2;enable-background:new    ;}
	.st3{opacity:0.1;enable-background:new    ;}
	.st4{fill:#FFFFFF;}
	.st5{fill:#484B4D;}
	.st6{fill:#737373;}
	.st7{fill:none;}
	.st8{fill:#7D7D7D;}
	.st9{fill:#636363;}
</style>
<g id="freepik--background-simple--inject-14">
	<path class="st0" d="M726.3,203.7C709.5,127,650.6,66.4,570.5,46.1c-21.1-5.3-43.5-8-65.8-5.7C413.7,49.7,305,111,248.6,123.9
		S126.2,85.3,51.2,164.2s-57.7,261.6,92.3,297.4s233.4-52.3,300-33s185.8,11,256.2-45.9C741.3,349,741,270.4,726.3,203.7z"/>
	<path class="st1" d="M726.3,203.7C709.5,127,650.6,66.4,570.5,46.1c-21.1-5.3-43.5-8-65.8-5.7C413.7,49.7,305,111,248.6,123.9
		S126.2,85.3,51.2,164.2s-57.7,261.6,92.3,297.4s233.4-52.3,300-33s185.8,11,256.2-45.9C741.3,349,741,270.4,726.3,203.7z"/>
</g>
<g id="freepik--Bricks--inject-14">
	<rect x="374.8" y="221.5" class="st2" width="30.9" height="12.5"/>
	<rect x="363" y="177" class="st2" width="30.9" height="12.5"/>
	<rect x="251.3" y="221.1" class="st2" width="30.9" height="12.5"/>
	<rect x="296.1" y="134.2" class="st2" width="30.9" height="12.5"/>
	<rect x="329.9" y="134.2" class="st2" width="30.9" height="12.5"/>
	<rect x="198.3" y="313.6" class="st2" width="30.9" height="12.5"/>
	<rect x="182.2" y="329" class="st2" width="30.9" height="12.5"/>
	<rect x="346.1" y="194.3" class="st3" width="30.9" height="12.5"/>
	<rect x="392.4" y="264.5" class="st3" width="30.9" height="12.5"/>
	<rect x="211.6" y="283.6" class="st3" width="30.9" height="12.5"/>
	<rect x="246.9" y="283.6" class="st3" width="30.9" height="12.5"/>
	<rect x="249.8" y="266" class="st3" width="30.9" height="12.5"/>
	<rect x="381.4" y="194.3" class="st3" width="30.9" height="12.5"/>
	<rect x="365.9" y="94.8" class="st2" width="30.9" height="12.5"/>
	<rect x="354.1" y="50.3" class="st2" width="30.9" height="12.5"/>
	<rect x="337.2" y="67.6" class="st3" width="30.9" height="12.5"/>
	<rect x="372.5" y="67.6" class="st3" width="30.9" height="12.5"/>
	<rect x="289.5" y="327.7" class="st2" width="30.9" height="12.5"/>
	<rect x="272.6" y="345" class="st3" width="30.9" height="12.5"/>
	<rect x="307.9" y="345" class="st3" width="30.9" height="12.5"/>
	<rect x="139.8" y="172.2" class="st2" width="30.9" height="12.5"/>
	<rect x="122.9" y="189.5" class="st3" width="30.9" height="12.5"/>
	<rect x="158.2" y="189.5" class="st3" width="30.9" height="12.5"/>
	<rect x="127.8" y="265.3" class="st2" width="30.9" height="12.5"/>
	<rect x="264.5" y="205.5" class="st3" width="30.9" height="12.5"/>
	<rect x="218.2" y="328.3" class="st3" width="30.9" height="12.5"/>
	<rect x="313.7" y="118.8" class="st3" width="30.9" height="12.5"/>
	<rect x="110.1" y="223.9" class="st2" width="30.9" height="12.5"/>
	<rect x="127.8" y="208.4" class="st3" width="30.9" height="12.5"/>
	<rect x="206.4" y="133.3" class="st3" width="30.9" height="12.5"/>
	<rect x="313.7" y="221.5" class="st2" width="30.9" height="12.5"/>
	<rect x="480.1" y="221.5" class="st2" width="30.9" height="12.5"/>
	<rect x="491.9" y="177" class="st2" width="30.9" height="12.5"/>
	<rect x="603.6" y="221.1" class="st2" width="30.9" height="12.5"/>
	<rect x="558.8" y="134.2" class="st2" width="30.9" height="12.5"/>
	<rect x="525" y="134.2" class="st2" width="30.9" height="12.5"/>
	<rect x="508.8" y="194.3" class="st3" width="30.9" height="12.5"/>
	<rect x="462.5" y="264.5" class="st3" width="30.9" height="12.5"/>
	<rect x="643.3" y="283.6" class="st3" width="30.9" height="12.5"/>
	<rect x="608" y="283.6" class="st3" width="30.9" height="12.5"/>
	<rect x="605.1" y="266" class="st3" width="30.9" height="12.5"/>
	<rect x="473.5" y="194.3" class="st3" width="30.9" height="12.5"/>
	<rect x="232.7" y="377.5" class="st2" width="30.9" height="12.5"/>
	<rect x="249.6" y="394.7" class="st3" width="30.9" height="12.5"/>
	<rect x="214.4" y="394.7" class="st3" width="30.9" height="12.5"/>
	<rect x="83.3" y="377.5" class="st2" width="30.9" height="12.5"/>
	<rect x="100.2" y="394.7" class="st3" width="30.9" height="12.5"/>
	<rect x="64.9" y="394.7" class="st3" width="30.9" height="12.5"/>
	<rect x="565.4" y="327.7" class="st2" width="30.9" height="12.5"/>
	<rect x="582.3" y="345" class="st3" width="30.9" height="12.5"/>
	<rect x="547" y="345" class="st3" width="30.9" height="12.5"/>
	<rect x="590.4" y="205.5" class="st3" width="30.9" height="12.5"/>
	<rect x="636.7" y="328.3" class="st3" width="30.9" height="12.5"/>
	<rect x="486.1" y="345.8" class="st3" width="30.9" height="12.5"/>
	<rect x="450.8" y="345.8" class="st3" width="30.9" height="12.5"/>
	<rect x="408.2" y="389.9" class="st2" width="30.9" height="12.5"/>
	<rect x="672" y="407.2" class="st3" width="30.9" height="12.5"/>
	<rect x="672" y="375.2" class="st3" width="30.9" height="12.5"/>
	<rect x="687.8" y="390.8" class="st3" width="30.9" height="12.5"/>
	<rect x="652.4" y="390.8" class="st3" width="30.9" height="12.5"/>
	<rect x="479.5" y="390.5" class="st3" width="30.9" height="12.5"/>
	<rect x="520" y="431.9" class="st2" width="30.9" height="12.5"/>
	<rect x="503" y="449.2" class="st3" width="30.9" height="12.5"/>
	<rect x="538.3" y="449.2" class="st3" width="30.9" height="12.5"/>
	<rect x="622.8" y="420.9" class="st2" width="30.9" height="12.5"/>
	<rect x="605.8" y="449.2" class="st3" width="30.9" height="12.5"/>
	<rect x="641.1" y="449.2" class="st3" width="30.9" height="12.5"/>
	<rect x="69.3" y="461.7" class="st3" width="30.9" height="12.5"/>
	<rect x="170.6" y="445.2" class="st3" width="30.9" height="12.5"/>
	<rect x="113.6" y="429.7" class="st3" width="30.9" height="12.5"/>
	<rect x="97.7" y="445.2" class="st3" width="30.9" height="12.5"/>
	<rect x="133.2" y="445.2" class="st3" width="30.9" height="12.5"/>
	<rect x="541.2" y="118.7" class="st3" width="30.9" height="12.5"/>
	<rect x="524.7" y="66.1" class="st3" width="30.9" height="12.5"/>
	<rect x="648.5" y="133.3" class="st3" width="30.9" height="12.5"/>
	<rect x="541.2" y="221.5" class="st2" width="30.9" height="12.5"/>
	<rect x="196.2" y="48.5" class="st2" width="30.9" height="12.5"/>
	<rect x="71.4" y="137" class="st3" width="30.9" height="12.5"/>
	<rect x="109.9" y="147.8" class="st3" width="30.9" height="12.5"/>
	<rect x="34.5" y="160.1" class="st3" width="30.9" height="12.5"/>
	<rect x="90.3" y="160.7" class="st3" width="30.9" height="12.5"/>
	<rect x="177.3" y="66" class="st2" width="30.9" height="12.5"/>
	<rect x="508.1" y="48.5" class="st2" width="30.9" height="12.5"/>
	<rect x="489.2" y="66" class="st2" width="30.9" height="12.5"/>
</g>
<g id="freepik--Pipelines--inject-14">
	<path class="st4" d="M91.2,213.4H11.6v-13h73.2V12.2h13v194.7C97.7,210.5,94.8,213.4,91.2,213.4L91.2,213.4z"/>
	<path class="st5" d="M91.2,213.9H11.6c-0.3,0-0.5-0.2-0.5-0.5v-13c0-0.3,0.2-0.5,0.5-0.5h72.7V12.2c0-0.3,0.2-0.5,0.5-0.5h13
		c0.3,0,0.5,0.2,0.5,0.5v194.7C98.2,210.7,95.1,213.9,91.2,213.9z M12.1,212.9h79.2c3.3,0,6-2.7,6-6V12.7h-12v187.7
		c0,0.3-0.2,0.5-0.5,0.5H12.1L12.1,212.9z"/>
	<path class="st4" d="M694.2,7.7v74.4H97.4v13h575.9v314.2H519.8c-3.6,0-6.5,2.9-6.5,6.5v47.9h13v-41.4h147.1v44h13V95.2h14.4
		c3.6,0,6.5-2.9,6.5-6.5l0,0V7.7H694.2z"/>
	<path class="st5" d="M686.4,466.8h-13c-0.3,0-0.5-0.2-0.5-0.5v-43.5H526.8v40.9c0,0.3-0.2,0.5-0.5,0.5h-13c-0.3,0-0.5-0.2-0.5-0.5
		v-47.9c0-3.9,3.1-7,7-7h153.1V95.7H97.4c-0.3,0-0.5-0.2-0.5-0.5v-13c0-0.3,0.2-0.5,0.5-0.5h596.3V7.7c0-0.3,0.2-0.5,0.5-0.5h13
		c0.3,0,0.5,0.2,0.5,0.5v80.9c0,3.9-3.1,7-7,7l0,0h-13.9v370.7C686.9,466.6,686.6,466.8,686.4,466.8z M673.9,465.8h12V95.2
		c0-0.3,0.2-0.5,0.5-0.5h14.4c3.3,0,6-2.7,6-6V8.2h-12v73.9c0,0.3-0.2,0.5-0.5,0.5H97.9v12h575.4c0.3,0,0.5,0.2,0.5,0.5v314.2
		c0,0.3-0.2,0.5-0.5,0.5H519.8c-3.3,0-6,2.7-6,6v47.4h12v-40.9c0-0.3,0.2-0.5,0.5-0.5h147.1c0.3,0,0.5,0.2,0.5,0.5V465.8z"/>
	<rect x="694.4" y="47.8" class="st4" width="12.7" height="5.9"/>
	<path class="st5" d="M707.1,54.2h-12.7c-0.3,0-0.5-0.2-0.5-0.5v-5.9c0-0.3,0.2-0.5,0.5-0.5h12.7c0.3,0,0.5,0.2,0.5,0.5v5.9
		C707.6,54,707.4,54.2,707.1,54.2z M694.9,53.2h11.7v-4.9h-11.7V53.2z"/>
	<rect x="566.2" y="409.6" class="st4" width="5.9" height="12.7"/>
	<path class="st5" d="M572.1,422.8h-5.9c-0.3,0-0.5-0.2-0.5-0.5v-12.7c0-0.3,0.2-0.5,0.5-0.5h5.9c0.3,0,0.5,0.2,0.5,0.5v12.7
		C572.6,422.6,572.4,422.8,572.1,422.8z M566.7,421.8h4.9v-11.7h-4.9V421.8z"/>
	<rect x="579" y="409.6" class="st4" width="5.9" height="12.7"/>
	<path class="st5" d="M585,422.8h-5.9c-0.3,0-0.5-0.2-0.5-0.5v-12.7c0-0.3,0.2-0.5,0.5-0.5h5.9c0.3,0,0.5,0.2,0.5,0.5v12.7
		C585.5,422.6,585.3,422.8,585,422.8z M579.6,421.8h4.9v-11.7h-4.9V421.8z"/>
	<rect x="29.9" y="433.1" class="st4" width="209.6" height="13"/>
	<path class="st5" d="M239.6,446.6H29.9c-0.3,0-0.5-0.2-0.5-0.5v-13c0-0.3,0.2-0.5,0.5-0.5h209.6c0.3,0,0.5,0.2,0.5,0.5v13
		C240.1,446.3,239.9,446.6,239.6,446.6z M30.4,445.6h208.6v-12H30.4L30.4,445.6z"/>
	<rect x="29.9" y="415.1" class="st4" width="209.6" height="13"/>
	<path class="st5" d="M239.6,428.6H29.9c-0.3,0-0.5-0.2-0.5-0.5v-13c0-0.3,0.2-0.5,0.5-0.5h209.6c0.3,0,0.5,0.2,0.5,0.5v13
		C240.1,428.4,239.9,428.6,239.6,428.6z M30.4,427.6h208.6v-12H30.4L30.4,427.6z"/>
	<rect x="119.4" y="415.4" class="st4" width="9" height="12.6"/>
	<path class="st5" d="M128.3,428.5h-9c-0.3,0-0.5-0.2-0.5-0.5v-12.6c0-0.3,0.2-0.5,0.5-0.5h9c0.3,0,0.5,0.2,0.5,0.5V428
		C128.9,428.3,128.6,428.5,128.3,428.5C128.4,428.5,128.4,428.5,128.3,428.5z M119.9,427.5h8v-11.6h-8V427.5z"/>
	<rect x="138.1" y="415.4" class="st4" width="9" height="12.6"/>
	<path class="st5" d="M147,428.5h-9c-0.3,0-0.5-0.2-0.5-0.5v-12.6c0-0.3,0.2-0.5,0.5-0.5h9c0.3,0,0.5,0.2,0.5,0.5V428
		C147.5,428.3,147.3,428.5,147,428.5C147,428.5,147,428.5,147,428.5z M138.5,427.5h8v-11.6h-8V427.5z"/>
	<rect x="119.4" y="433.3" class="st4" width="9" height="12.6"/>
	<path class="st5" d="M128.3,446.4h-9c-0.3,0-0.5-0.2-0.5-0.5v-12.6c0-0.3,0.2-0.5,0.5-0.5h9c0.3,0,0.5,0.2,0.5,0.5v12.6
		C128.8,446.2,128.6,446.4,128.3,446.4z M119.9,445.4h8v-11.6h-8V445.4z"/>
	<rect x="138.1" y="433.3" class="st4" width="9" height="12.6"/>
	<path class="st5" d="M147,446.4h-9c-0.3,0-0.5-0.2-0.5-0.5v-12.6c0-0.3,0.2-0.5,0.5-0.5h9c0.3,0,0.5,0.2,0.5,0.5v12.6
		C147.5,446.2,147.3,446.4,147,446.4z M138.5,445.4h8v-11.6h-8V445.4z"/>
</g>
<g id="freepik--Gears--inject-14">
	<path class="st4" d="M268.1,172.5v-17.2h-10.4c-0.5-2.8-1.2-5.6-2.2-8.3l9-5.2l-8.6-14.8l-9,5.2c-1.9-2.2-3.9-4.2-6.1-6.1l5.2-9
		l-14.9-8.6l-5.2,9c-2.7-1-5.5-1.7-8.3-2.2v-10.5h-17.2v10.4c-2.8,0.5-5.6,1.2-8.3,2.2l-5.2-9L172,117l5.2,9
		c-2.2,1.8-4.3,3.9-6.1,6.1l-9-5.2l-8.6,14.9l9,5.2c-1,2.7-1.7,5.5-2.2,8.3h-10.5v17.1h10.4c0.5,2.8,1.2,5.6,2.2,8.3l-9,5.2
		l8.6,14.9l9.1-5.2c1.9,2.2,3.9,4.2,6.1,6.1l-5.2,9l14.8,8.6l5.2-9c2.7,1,5.5,1.7,8.3,2.2V223h17.1v-10.4c2.8-0.5,5.6-1.2,8.3-2.2
		l5.2,9l14.9-8.6l-5.2-9c2.2-1.9,4.2-3.9,6.1-6.1l9,5.2l8.6-14.9l-9-5.2c1-2.7,1.7-5.5,2.2-8.3L268.1,172.5z M209,195.9
		c-17.6,0-32-14.3-32-31.9s14.3-32,31.9-32s32,14.3,32,31.9c0,0,0,0,0,0C240.9,181.6,226.6,195.9,209,195.9L209,195.9z"/>
	<path class="st5" d="M217.6,223.5h-17.2c-0.3,0-0.5-0.2-0.5-0.5v-10c-2.6-0.5-5.1-1.1-7.6-2l-5,8.7c-0.1,0.2-0.4,0.3-0.7,0.2
		l-14.8-8.6c-0.2-0.1-0.3-0.4-0.2-0.7l5-8.7c-2-1.7-3.9-3.6-5.6-5.6l-8.7,5c-0.1,0.1-0.3,0.1-0.4,0c-0.1,0-0.2-0.1-0.3-0.2
		l-8.6-14.9c-0.1-0.2-0.1-0.5,0.2-0.7l8.7-5c-0.9-2.5-1.5-5-2-7.6h-10c-0.3,0-0.5-0.2-0.5-0.5v-17.1c0-0.3,0.2-0.5,0.5-0.5h10
		c0.5-2.6,1.1-5.1,2-7.6l-8.7-5c-0.2-0.1-0.3-0.4-0.2-0.7l8.6-14.8c0.1-0.1,0.2-0.2,0.3-0.2c0.1,0,0.3,0,0.4,0l8.7,5
		c1.7-2,3.6-3.9,5.6-5.6l-5-8.7c0-0.1,0-0.3,0-0.4c0-0.1,0.1-0.2,0.2-0.3l14.8-8.6c0.2-0.1,0.5-0.1,0.7,0.2l5,8.7
		c2.5-0.9,5-1.5,7.6-2v-10c0-0.3,0.2-0.5,0.5-0.5h17.1c0.3,0,0.5,0.2,0.5,0.5v10c2.6,0.5,5.1,1.1,7.6,2l5-8.7
		c0.1-0.1,0.2-0.2,0.3-0.2c0.1-0.1,0.3-0.1,0.4,0l14.9,8.6c0.2,0.1,0.3,0.4,0.2,0.7c0,0,0,0,0,0l-5,8.7c2,1.7,3.9,3.6,5.6,5.6l8.7-5
		c0.1-0.1,0.3-0.1,0.4-0.1c0.1,0,0.2,0.1,0.3,0.2l8.6,14.8c0.1,0.2,0.1,0.5-0.2,0.7l-8.7,5c0.9,2.5,1.5,5,2,7.6h10
		c0.3,0,0.5,0.2,0.5,0.5v17.1c0,0.3-0.2,0.5-0.5,0.5h-10c-0.5,2.6-1.1,5.1-2,7.6l8.7,5c0.1,0.1,0.2,0.2,0.2,0.3c0,0.1,0,0.3,0,0.4
		l-8.6,14.9c-0.1,0.2-0.4,0.3-0.7,0.2c0,0,0,0,0,0l-8.7-5c-1.7,2-3.6,3.9-5.6,5.6l5,8.7c0.1,0.2,0.1,0.5-0.2,0.7c0,0,0,0,0,0
		l-14.9,8.6c-0.1,0.1-0.3,0.1-0.4,0.1c-0.1,0-0.2-0.1-0.3-0.2l-5-8.7c-2.5,0.9-5,1.5-7.6,2v10C218.1,223.2,217.9,223.5,217.6,223.5
		C217.6,223.5,217.6,223.5,217.6,223.5z M200.9,222.5h16.1v-9.9c0-0.2,0.2-0.5,0.4-0.5c2.8-0.5,5.6-1.2,8.3-2.2
		c0.2-0.1,0.5,0,0.6,0.2l5,8.6l14-8.1l-5-8.6c-0.1-0.2-0.1-0.5,0.1-0.6c2.2-1.8,4.2-3.8,6-6c0.2-0.2,0.4-0.2,0.6-0.1l8.6,5l8.1-14
		l-8.6-5c-0.2-0.1-0.3-0.4-0.2-0.6c1-2.7,1.7-5.4,2.2-8.3c0-0.2,0.2-0.4,0.5-0.4h9.9v-16.2h-9.9c-0.2,0-0.5-0.2-0.5-0.4
		c-0.5-2.8-1.2-5.6-2.2-8.2c-0.1-0.2,0-0.5,0.2-0.6l8.6-5l-8.1-14l-8.6,5c-0.2,0.1-0.5,0.1-0.6-0.1c-1.8-2.2-3.8-4.2-6-6
		c-0.2-0.2-0.2-0.4-0.1-0.6l5-8.6l-14-8.1l-5,8.6c-0.1,0.2-0.4,0.3-0.6,0.2c-2.7-1-5.4-1.7-8.2-2.2c-0.2,0-0.4-0.3-0.4-0.5v-9.9
		h-16.1v10c0,0.2-0.2,0.5-0.4,0.5c-2.8,0.5-5.6,1.2-8.3,2.2c-0.2,0.1-0.5,0-0.6-0.2l-5-8.6l-14,8.1l5,8.6c0.1,0.2,0.1,0.5-0.1,0.6
		c-2.2,1.8-4.2,3.8-6,6c-0.2,0.2-0.4,0.2-0.6,0.1l-8.6-5l-8.1,14l8.6,5c0.2,0.1,0.3,0.4,0.2,0.6c-1,2.7-1.7,5.4-2.2,8.2
		c0,0.2-0.2,0.4-0.5,0.4h-9.9V172h10c0.2,0,0.5,0.2,0.5,0.4c0.5,2.8,1.2,5.6,2.2,8.2c0.1,0.2,0,0.5-0.2,0.6l-8.6,5l8.1,14l8.6-5
		c0.2-0.1,0.5-0.1,0.6,0.1c1.8,2.2,3.8,4.2,6,6c0.2,0.2,0.2,0.4,0.1,0.6l-5,8.6l14,8.1l5-8.6c0.1-0.2,0.4-0.3,0.6-0.2
		c2.7,1,5.4,1.7,8.2,2.2c0.2,0,0.4,0.2,0.4,0.5L200.9,222.5z M209,196.4c-17.9,0-32.5-14.5-32.5-32.4c0-17.9,14.5-32.5,32.4-32.5
		s32.5,14.5,32.5,32.4c0,0,0,0,0,0C241.4,181.8,226.9,196.4,209,196.4z M209,132.5c-17.4,0-31.5,14.1-31.5,31.4
		c0,17.4,14.1,31.5,31.4,31.5s31.5-14.1,31.5-31.4c0,0,0,0,0,0C240.4,146.6,226.4,132.5,209,132.5L209,132.5z"/>
	<path class="st4" d="M190.1,329.9v-17.1h-10.4c-0.5-2.8-1.2-5.6-2.2-8.3l9-5.2l-8.6-14.9l-9,5.2c-1.9-2.2-3.9-4.2-6.1-6.1l5.2-9
		l-14.9-8.6l-5.2,9c-2.7-1-5.5-1.7-8.3-2.2v-10.5h-17.2v10.4c-2.8,0.5-5.6,1.2-8.3,2.2l-5.2-9l-14.8,8.6l5.2,9
		c-2.2,1.9-4.2,3.9-6.1,6.1l-9-5.2l-8.6,14.9l9,5.2c-1,2.7-1.7,5.5-2.2,8.3H71.9v17.1h10.4c0.5,2.8,1.2,5.6,2.2,8.3l-9,5.2l8.6,14.9
		l9-5.2c1.8,2.2,3.9,4.2,6.1,6.1l-5.2,9l14.8,8.6l5.2-9c2.7,1,5.5,1.7,8.3,2.2v10.4h17.1V370c2.8-0.5,5.6-1.2,8.3-2.2l5.2,9
		l14.9-8.6l-5.2-9c2.2-1.9,4.2-3.9,6.1-6.1l9,5.2l8.6-14.8l-9-5.2c1-2.7,1.7-5.5,2.2-8.3H190.1z M131,353.3
		c-17.6,0-31.9-14.4-31.9-32c0-17.6,14.4-31.9,32-31.9c17.6,0,31.9,14.3,31.9,31.9C163,339,148.7,353.3,131,353.3
		C131,353.3,131,353.3,131,353.3z"/>
	<path class="st5" d="M139.6,381h-17.1c-0.3,0-0.5-0.2-0.5-0.5v-10c-2.6-0.5-5.1-1.1-7.6-2l-5,8.7c-0.1,0.1-0.2,0.2-0.3,0.2
		c-0.1,0-0.3,0-0.4-0.1l-14.8-8.6c-0.2-0.1-0.3-0.4-0.2-0.7l5-8.7c-2-1.7-3.9-3.6-5.6-5.6l-8.7,5c-0.2,0.1-0.5,0-0.7-0.2l-8.6-14.8
		c-0.1-0.1-0.1-0.3-0.1-0.4c0-0.1,0.1-0.2,0.2-0.3l8.7-5c-0.9-2.5-1.5-5-2-7.6H72c-0.3,0-0.5-0.2-0.5-0.5v-17.2
		c0-0.3,0.2-0.5,0.5-0.5h10c0.5-2.6,1.1-5.1,2-7.6l-8.7-5c-0.1-0.1-0.2-0.2-0.2-0.3c0-0.1,0-0.3,0-0.4l8.6-14.9
		c0.1-0.2,0.4-0.3,0.7-0.2l8.7,5c1.7-2,3.6-3.9,5.6-5.6l-5-8.7c-0.1-0.2-0.1-0.5,0.2-0.7l14.8-8.6c0.2-0.1,0.5-0.1,0.7,0.2l5,8.7
		c2.5-0.9,5-1.5,7.6-2v-10c0-0.3,0.2-0.5,0.5-0.5h17.2c0.3,0,0.5,0.2,0.5,0.5v10c2.6,0.5,5.1,1.1,7.6,2l5-8.7
		c0.1-0.1,0.2-0.2,0.3-0.2c0.1,0,0.3,0,0.4,0l14.8,8.5c0.2,0.1,0.3,0.4,0.2,0.7l-5,8.7c2,1.7,3.9,3.6,5.6,5.6l8.7-5
		c0.1-0.1,0.3-0.1,0.4,0c0.1,0,0.2,0.1,0.3,0.2l8.6,14.8c0.1,0.1,0.1,0.3,0.1,0.4c0,0.1-0.1,0.2-0.2,0.3l-8.7,5c0.9,2.5,1.5,5,2,7.6
		h10c0.3,0,0.5,0.2,0.5,0.5v17.1c0,0.3-0.2,0.5-0.5,0.5h-10c-0.5,2.6-1.1,5.1-2,7.6l8.7,5c0.2,0.1,0.3,0.4,0.2,0.7l-8.6,14.9
		c-0.1,0.2-0.4,0.3-0.7,0.2l-8.7-5c-1.7,2-3.6,3.9-5.6,5.6l5,8.7c0.1,0.1,0.1,0.3,0.1,0.4c0,0.1-0.1,0.2-0.2,0.3l-14.9,8.6
		c-0.1,0.1-0.3,0.1-0.4,0c-0.1,0-0.2-0.1-0.3-0.2l-5-8.7c-2.5,0.9-5,1.5-7.6,2v10C140.1,380.7,139.9,381,139.6,381
		C139.6,381,139.6,381,139.6,381z M123,380h16.1v-10c0-0.2,0.2-0.4,0.4-0.5c2.8-0.5,5.6-1.2,8.3-2.2c0.2-0.1,0.5,0,0.6,0.2l5,8.6
		l14-8.1l-5-8.6c-0.1-0.2-0.1-0.5,0.1-0.6c2.2-1.8,4.2-3.8,6-6c0.2-0.2,0.4-0.2,0.6-0.1l8.6,5l8.1-14l-8.6-5
		c-0.2-0.1-0.3-0.4-0.2-0.6c1-2.7,1.7-5.4,2.2-8.2c0-0.2,0.2-0.4,0.5-0.4h9.9v-16.2h-9.9c-0.2,0-0.5-0.2-0.5-0.4
		c-0.5-2.8-1.2-5.6-2.2-8.2c-0.1-0.2,0-0.5,0.2-0.6l8.6-5l-8.1-14l-8.6,5c-0.2,0.1-0.5,0.1-0.6-0.1c-1.8-2.2-3.8-4.2-6-6
		c-0.2-0.2-0.2-0.4-0.1-0.6l5-8.6l-14-8.1l-5,8.6c-0.1,0.2-0.4,0.3-0.6,0.2c-2.7-1-5.4-1.7-8.2-2.2c-0.2,0-0.4-0.2-0.4-0.5v-9.9H123
		v9.9c0,0.2-0.2,0.5-0.4,0.5c-2.8,0.5-5.6,1.2-8.3,2.2c-0.2,0.1-0.5,0-0.6-0.2l-5-8.6l-14,8.1l5,8.6c0.1,0.2,0.1,0.5-0.1,0.6
		c-2.2,1.8-4.2,3.8-6,6c-0.2,0.2-0.4,0.2-0.6,0.1l-8.6-5l-8.1,14l8.6,5c0.2,0.1,0.3,0.4,0.2,0.6c-1,2.7-1.7,5.4-2.2,8.3
		c0,0.2-0.2,0.4-0.5,0.4h-10v16.1h10c0.2,0,0.5,0.2,0.5,0.4c0.5,2.8,1.2,5.6,2.2,8.3c0.1,0.2,0,0.5-0.2,0.6l-8.6,5l8.1,14l8.6-5
		c0.2-0.1,0.5-0.1,0.6,0.1c1.8,2.2,3.8,4.2,6,6c0.2,0.2,0.2,0.4,0.1,0.6l-5,8.6l14,8.1l5-8.6c0.1-0.2,0.4-0.3,0.6-0.2
		c2.7,1,5.4,1.7,8.2,2.2c0.2,0,0.4,0.2,0.4,0.5L123,380z M131,353.8c-17.9,0-32.5-14.5-32.5-32.4s14.5-32.5,32.4-32.5
		s32.5,14.5,32.5,32.4c0,0,0,0,0,0C163.4,339.3,148.9,353.8,131,353.8z M131,289.9c-17.4,0-31.5,14.1-31.5,31.4
		c0,17.4,14.1,31.5,31.4,31.5s31.5-14.1,31.5-31.4c0,0,0,0,0,0C162.4,304,148.4,289.9,131,289.9L131,289.9z"/>
	<path class="st4" d="M625.2,327.5v-11.6h-7c-0.3-1.9-0.8-3.8-1.5-5.6l6.1-3.5l-5.8-10l-6.1,3.5c-1.3-1.5-2.6-2.9-4.1-4.1l3.5-6.2
		l-10-5.8l-3.5,6.1c-1.8-0.7-3.7-1.2-5.6-1.5v-7h-11.6v7c-1.9,0.3-3.8,0.8-5.6,1.5l-3.5-6.1l-10,5.8l3.5,6.1
		c-1.5,1.2-2.9,2.6-4.1,4.1l-6.1-3.5l-5.8,10l6.1,3.5c-0.7,1.8-1.2,3.7-1.5,5.6h-7v11.6h7c0.3,1.9,0.8,3.8,1.5,5.6l-6.1,3.5l5.8,10
		l6.1-3.5c1.2,1.5,2.6,2.9,4.1,4.1l-3.5,6.1l10,5.8l3.5-6.1c1.8,0.7,3.7,1.2,5.6,1.5v7h11.6v-7c1.9-0.3,3.8-0.8,5.6-1.5l3.5,6.1
		l10-5.8l-3.5-6.1c1.5-1.3,2.9-2.6,4.1-4.1l6.1,3.5l5.8-10l-6.1-3.5c0.7-1.8,1.2-3.7,1.5-5.6L625.2,327.5z M585.3,343.2
		c-11.9,0-21.6-9.7-21.6-21.6s9.7-21.6,21.6-21.6c11.9,0,21.6,9.7,21.6,21.6S597.3,343.2,585.3,343.2L585.3,343.2z"/>
	<path class="st5" d="M591.2,362.1h-11.6c-0.3,0-0.5-0.2-0.5-0.5V355c-1.7-0.3-3.3-0.8-4.9-1.3l-3.3,5.7c-0.1,0.2-0.4,0.3-0.7,0.2
		l-10-5.8c-0.1-0.1-0.2-0.2-0.2-0.3c0-0.1,0-0.3,0-0.4l3.3-5.7c-1.3-1.1-2.5-2.3-3.6-3.6l-5.7,3.3c-0.1,0.1-0.3,0.1-0.4,0
		c-0.1,0-0.2-0.1-0.3-0.2l-5.8-10c-0.1-0.1-0.1-0.3,0-0.4c0-0.1,0.1-0.2,0.2-0.3l5.7-3.3c-0.6-1.6-1-3.2-1.3-4.9h-6.6
		c-0.3,0-0.5-0.2-0.5-0.5v-11.6c0-0.3,0.2-0.5,0.5-0.5h6.6c0.3-1.7,0.7-3.3,1.3-4.9l-5.7-3.3c-0.2-0.1-0.3-0.4-0.2-0.7l5.8-10
		c0.1-0.1,0.2-0.2,0.3-0.2c0.1,0,0.3,0,0.4,0l5.7,3.3c1.1-1.3,2.3-2.5,3.6-3.6l-3.3-5.8c-0.1-0.2,0-0.5,0.2-0.7l10-5.8
		c0.1-0.1,0.3-0.1,0.4,0c0.1,0,0.2,0.1,0.3,0.2l3.3,5.7c1.6-0.6,3.2-1,4.9-1.3v-6.6c0-0.3,0.2-0.5,0.5-0.5h11.6
		c0.3,0,0.5,0.2,0.5,0.5v6.6c1.7,0.3,3.3,0.7,4.9,1.3l3.3-5.7c0.1-0.1,0.2-0.2,0.3-0.2c0.1,0,0.3,0,0.4,0l10,5.8
		c0.1,0.1,0.2,0.2,0.2,0.3c0,0.1,0,0.3-0.1,0.4l-3.3,5.7c1.3,1.1,2.5,2.3,3.6,3.6l5.7-3.3c0.2-0.1,0.5-0.1,0.7,0.2c0,0,0,0,0,0
		l5.8,10c0.1,0.2,0.1,0.5-0.2,0.7c0,0,0,0,0,0l-5.7,3.3c0.6,1.6,1,3.2,1.3,4.9h6.6c0.3,0,0.5,0.2,0.5,0.5v11.6
		c0,0.3-0.2,0.5-0.5,0.5h-6.6c-0.3,1.7-0.8,3.3-1.3,4.9l5.7,3.3c0.1,0.1,0.2,0.2,0.2,0.3c0,0.1,0,0.3,0,0.4l-5.8,10
		c-0.1,0.2-0.4,0.3-0.7,0.2l-5.8-3.3c-1.1,1.3-2.3,2.5-3.6,3.6l3.3,5.7c0.1,0.2,0.1,0.5-0.2,0.7l-10,5.8c-0.2,0.1-0.5,0.1-0.7-0.2
		c0,0,0,0,0,0l-3.3-5.7c-1.6,0.6-3.2,1-4.9,1.3v6.6C591.7,361.9,591.4,362.1,591.2,362.1z M580.1,361.1h10.6v-6.5
		c0-0.2,0.2-0.5,0.4-0.5c1.9-0.3,3.7-0.8,5.5-1.5c0.2-0.1,0.5,0,0.6,0.2l3.3,5.7l9.2-5.3l-3.3-5.7c-0.1-0.2-0.1-0.5,0.1-0.6
		c1.4-1.2,2.8-2.6,4-4c0.2-0.2,0.4-0.2,0.6-0.1l5.7,3.3l5.3-9.2l-5.7-3.3c-0.2-0.1-0.3-0.4-0.2-0.6c0.7-1.8,1.2-3.7,1.5-5.5
		c0-0.2,0.2-0.4,0.5-0.4h6.5v-10.6h-6.5c-0.2,0-0.5-0.2-0.5-0.4c-0.3-1.9-0.8-3.7-1.5-5.5c-0.1-0.2,0-0.5,0.2-0.6l5.7-3.3l-5.3-9.2
		l-5.7,3.3c-0.2,0.1-0.5,0.1-0.6-0.1c-1.2-1.5-2.6-2.8-4-4c-0.2-0.2-0.2-0.4-0.1-0.6l3.3-5.7l-9.2-5.3l-3.3,5.7
		c-0.1,0.2-0.4,0.3-0.6,0.2c-1.8-0.6-3.7-1.1-5.5-1.5c-0.2,0-0.4-0.2-0.4-0.5v-6.5H580v6.5c0,0.2-0.2,0.5-0.4,0.5
		c-1.9,0.3-3.7,0.8-5.5,1.5c-0.2,0.1-0.5,0-0.6-0.2l-3.3-5.7l-9.2,5.3l3.3,5.7c0.1,0.2,0.1,0.5-0.1,0.6c-1.5,1.2-2.8,2.6-4,4.1
		c-0.2,0.2-0.4,0.2-0.6,0.1l-5.7-3.3l-5.3,9.2l5.7,3.3c0.2,0.1,0.3,0.4,0.2,0.6c-0.7,1.8-1.1,3.7-1.5,5.6c0,0.2-0.2,0.4-0.5,0.4H546
		V327h6.5c0.2,0,0.5,0.2,0.5,0.4c0.3,1.9,0.8,3.7,1.5,5.5c0.1,0.2,0,0.5-0.2,0.6l-5.7,3.3l5.3,9.2l5.7-3.3c0.2-0.1,0.5-0.1,0.6,0.1
		c1.2,1.5,2.6,2.8,4,4.1c0.2,0.2,0.2,0.4,0.1,0.6l-3.3,5.7l9.2,5.3l3.3-5.7c0.1-0.2,0.4-0.3,0.6-0.2c1.8,0.7,3.7,1.2,5.5,1.5
		c0.2,0,0.4,0.2,0.4,0.5L580.1,361.1z M585.4,343.8c-12.2,0-22.1-9.9-22.1-22.1s9.9-22.1,22.1-22.1c12.2,0,22.1,9.9,22.1,22.1
		C607.4,333.9,597.5,343.7,585.4,343.8L585.4,343.8z M585.4,300.6c-11.6,0-21.1,9.4-21.1,21.1s9.4,21.1,21.1,21.1
		c11.6,0,21.1-9.4,21.1-21.1c0,0,0,0,0,0C606.4,310.1,597,300.6,585.4,300.6L585.4,300.6z"/>
	<path class="st4" d="M568.7,163.5v-11.6h-7c-0.3-1.9-0.8-3.8-1.5-5.6l6.1-3.5l-5.8-10l-6.1,3.5c-1.3-1.5-2.6-2.9-4.1-4.1l3.5-6.1
		l-10-5.8l-3.5,6.1c-1.8-0.7-3.7-1.2-5.6-1.5v-7H523v7c-1.9,0.3-3.8,0.8-5.6,1.5l-3.5-6.1l-10,5.8l3.5,6.1c-1.5,1.3-2.9,2.6-4.1,4.1
		l-6.1-3.5l-5.8,10l6.1,3.5c-0.7,1.8-1.2,3.7-1.5,5.6h-7v11.6h7c0.3,1.9,0.8,3.8,1.5,5.6l-6.1,3.5l5.8,10l6.1-3.5
		c1.3,1.5,2.6,2.9,4.1,4.1l-3.5,6.1l10,5.8l3.5-6.1c1.8,0.7,3.7,1.2,5.6,1.5v7h11.6v-7c1.9-0.3,3.8-0.8,5.6-1.5l3.5,6.1l10-5.8
		l-3.5-6.1c1.5-1.3,2.9-2.6,4.1-4.1l6.1,3.5l5.8-10l-6.1-3.5c0.7-1.8,1.2-3.7,1.5-5.6H568.7z M528.8,179.3
		c-11.9,0-21.6-9.6-21.6-21.6s9.6-21.6,21.6-21.6s21.6,9.6,21.6,21.6c0,0,0,0,0,0C550.3,169.6,540.7,179.3,528.8,179.3z"/>
	<path class="st5" d="M534.6,198.1H523c-0.3,0-0.5-0.2-0.5-0.5V191c-1.7-0.3-3.3-0.7-4.9-1.3l-3.3,5.7c-0.1,0.2-0.4,0.3-0.7,0.2
		c0,0,0,0,0,0l-10-5.8c-0.1-0.1-0.2-0.2-0.2-0.3c0-0.1,0-0.3,0-0.4l3.3-5.7c-1.3-1.1-2.5-2.3-3.6-3.6l-5.7,3.3
		c-0.1,0.1-0.3,0.1-0.4,0.1c-0.1,0-0.2-0.1-0.3-0.2l-5.8-10c-0.1-0.1-0.1-0.3-0.1-0.4c0-0.1,0.1-0.2,0.2-0.3l5.7-3.3
		c-0.6-1.6-1-3.2-1.3-4.9h-6.6c-0.3,0-0.5-0.2-0.5-0.5V152c0-0.3,0.2-0.5,0.5-0.5h6.6c0.3-1.7,0.7-3.3,1.3-4.9l-5.7-3.3
		c-0.2-0.1-0.3-0.4-0.2-0.7c0,0,0,0,0,0l5.8-10c0.1-0.2,0.4-0.3,0.7-0.2l5.7,3.3c1.1-1.3,2.3-2.5,3.6-3.6l-3.3-5.7
		c-0.1-0.2-0.1-0.5,0.2-0.7l10-5.8c0.1-0.1,0.3-0.1,0.4-0.1c0.1,0,0.2,0.1,0.3,0.2l3.3,5.7c1.6-0.6,3.2-1,4.9-1.3v-6.6
		c0-0.3,0.2-0.5,0.5-0.5h11.6c0.3,0,0.5,0.2,0.5,0.5v6.6c1.7,0.3,3.3,0.7,4.9,1.3l3.3-5.7c0.1-0.2,0.4-0.3,0.7-0.2c0,0,0,0,0,0
		l10,5.8c0.1,0.1,0.2,0.2,0.2,0.3c0,0.1,0,0.3,0,0.4l-3.3,5.7c1.3,1.1,2.5,2.3,3.6,3.6l5.8-3.3c0.2-0.1,0.5-0.1,0.7,0.2l5.8,10
		c0.1,0.2,0,0.5-0.2,0.7l-5.7,3.3c0.6,1.6,1,3.2,1.3,4.9h6.6c0.3,0,0.5,0.2,0.5,0.5v11.6c0,0.3-0.2,0.5-0.5,0.5H562
		c-0.3,1.7-0.7,3.3-1.3,4.9l5.7,3.3c0.2,0.1,0.3,0.4,0.2,0.7c0,0,0,0,0,0l-5.8,10c-0.1,0.1-0.2,0.2-0.3,0.2c-0.1,0-0.3,0-0.4,0
		l-5.7-3.3c-1.1,1.3-2.3,2.5-3.6,3.6l3.3,5.8c0.1,0.1,0.1,0.3,0,0.4c0,0.1-0.1,0.2-0.2,0.3l-10,5.8c-0.1,0-0.3,0-0.4,0
		c-0.1,0-0.2-0.1-0.3-0.2l-3.3-5.7c-1.6,0.6-3.2,1-4.9,1.3v6.6C535,197.9,534.8,198.1,534.6,198.1z M523.5,197.1h10.6v-6.6
		c0-0.2,0.2-0.5,0.4-0.5c1.9-0.3,3.7-0.8,5.5-1.5c0.2-0.1,0.5,0,0.6,0.2l3.3,5.7l9.2-5.3l-3.3-5.7c-0.1-0.2-0.1-0.5,0.1-0.6
		c1.5-1.2,2.8-2.6,4.1-4.1c0.2-0.2,0.4-0.2,0.6-0.1l5.7,3.3l5.3-9.1l-5.7-3.3c-0.2-0.1-0.3-0.4-0.2-0.6c0.7-1.8,1.1-3.7,1.5-5.5
		c0-0.2,0.2-0.4,0.5-0.4h6.5v-10.6h-6.5c-0.2,0-0.5-0.2-0.5-0.4c-0.3-1.9-0.8-3.7-1.5-5.6c-0.1-0.2,0-0.5,0.2-0.6l5.7-3.3l-5.3-9.2
		l-5.7,3.3c-0.2,0.1-0.5,0.1-0.6-0.1c-1.2-1.5-2.6-2.8-4.1-4.1c-0.2-0.2-0.2-0.4-0.1-0.6l3.3-5.7l-9.2-5.3l-3.3,5.7
		c-0.1,0.2-0.4,0.3-0.6,0.2c-1.8-0.6-3.7-1.1-5.5-1.5c-0.2,0-0.4-0.2-0.4-0.5v-6.6h-10.6v6.6c0,0.2-0.2,0.5-0.4,0.5
		c-1.9,0.3-3.7,0.8-5.5,1.5c-0.2,0.1-0.5,0-0.6-0.2l-3.3-5.7l-9.2,5.3l3.3,5.7c0.1,0.2,0.1,0.5-0.1,0.6c-1.5,1.2-2.8,2.6-4.1,4.1
		c-0.2,0.2-0.4,0.2-0.6,0.1l-5.7-3.3l-5.3,9.1l5.7,3.3c0.2,0.1,0.3,0.4,0.2,0.6c-0.6,1.8-1.1,3.7-1.5,5.5c0,0.2-0.2,0.4-0.5,0.4
		h-6.5V163h6.5c0.2,0,0.5,0.2,0.5,0.4c0.3,1.9,0.8,3.8,1.5,5.6c0.1,0.2,0,0.5-0.2,0.6l-5.7,3.3l5.3,9.2l5.7-3.3
		c0.2-0.1,0.5-0.1,0.6,0.1c1.2,1.5,2.6,2.8,4.1,4.1c0.2,0.2,0.2,0.4,0.1,0.6l-3.3,5.7l9.2,5.3l3.3-5.7c0.1-0.2,0.4-0.3,0.6-0.2
		c1.8,0.6,3.7,1.1,5.5,1.5c0.2,0,0.4,0.2,0.4,0.5L523.5,197.1z M528.8,179.8c-12.2,0-22.1-9.9-22.1-22.1s9.9-22.1,22.1-22.1
		c12.2,0,22.1,9.9,22.1,22.1c0,0,0,0,0,0C550.8,169.9,541,179.8,528.8,179.8z M528.8,136.7c-11.6,0-21.1,9.4-21.1,21.1
		s9.4,21.1,21.1,21.1c11.6,0,21.1-9.4,21.1-21.1c0,0,0,0,0,0C549.8,146.1,540.4,136.7,528.8,136.7z"/>
</g>
<g id="freepik--Text--inject-14">
	<path class="st5" d="M291.8,467.3v-51.8h18.7v3.8h-13.8v19.4h11.3v3.6h-11.3v21.4h13.9v3.6H291.8z"/>
	<path class="st5" d="M317.3,467.3v-51.8H329c2.6-0.1,5.3,0.4,7.6,1.6c1.8,1,3.2,2.6,4,4.5c0.9,2.3,1.3,4.7,1.2,7.1
		c0,1.8-0.2,3.7-0.6,5.4c-0.4,1.6-1.1,3.1-2.2,4.4c-1.1,1.3-2.7,2.1-4.4,2.4l7.9,26.5h-4.7l-7.6-25.5h-8.1v25.5L317.3,467.3z
		 M322.1,438.3h6.6c1.7,0.1,3.5-0.3,5-1.1c1.2-0.7,2.1-1.9,2.6-3.2c0.6-1.7,0.8-3.5,0.8-5.3c0-3.2-0.6-5.6-1.7-7.2
		c-1.1-1.6-3.3-2.4-6.6-2.4h-6.7L322.1,438.3z"/>
	<path class="st5" d="M350,467.3v-51.8h11.7c2.6-0.1,5.3,0.4,7.6,1.6c1.8,1,3.2,2.6,4,4.5c0.9,2.3,1.3,4.7,1.2,7.1
		c0,1.8-0.2,3.7-0.6,5.4c-0.4,1.6-1.1,3.1-2.2,4.4c-1.1,1.3-2.7,2.1-4.4,2.4l7.9,26.5h-4.7l-7.6-25.5h-8.1v25.5L350,467.3z
		 M354.9,438.3h6.6c1.8,0.1,3.5-0.3,5.1-1.1c1.2-0.7,2.1-1.9,2.6-3.2c0.6-1.7,0.8-3.5,0.8-5.3c0-3.2-0.6-5.6-1.7-7.2
		c-1.1-1.6-3.3-2.4-6.6-2.4h-6.7V438.3z"/>
	<path class="st5" d="M395,467.9c-3.4,0-6.1-0.7-8-2c-2-1.4-3.4-3.3-4.1-5.6c-0.8-2.7-1.2-5.5-1.2-8.3v-21.5
		c-0.1-2.8,0.4-5.6,1.2-8.2c0.7-2.2,2.2-4.1,4.2-5.4c5-2.6,10.9-2.6,15.9,0c1.9,1.3,3.4,3.2,4.1,5.4c0.9,2.7,1.3,5.4,1.2,8.2v21.6
		c0,2.8-0.4,5.6-1.2,8.2c-0.7,2.3-2.1,4.2-4.1,5.6C401.1,467.3,398.4,467.9,395,467.9z M395,464c1.9,0.1,3.7-0.4,5.2-1.4
		c1.2-1,2.1-2.3,2.5-3.8c0.5-1.9,0.7-3.8,0.7-5.7v-23.5c0-1.9-0.2-3.8-0.7-5.7c-0.4-1.5-1.2-2.8-2.5-3.8c-3.3-1.7-7.2-1.7-10.5,0
		c-1.2,0.9-2.1,2.2-2.5,3.8c-0.5,1.9-0.7,3.8-0.7,5.7v23.5c0,1.9,0.2,3.9,0.7,5.7c0.4,1.5,1.3,2.9,2.5,3.8
		C391.3,463.7,393.2,464.1,395,464L395,464z"/>
	<path class="st5" d="M416.3,467.3v-51.8H428c2.6-0.1,5.3,0.4,7.6,1.6c1.8,1,3.2,2.6,4,4.5c0.9,2.3,1.3,4.7,1.2,7.1
		c0,1.8-0.2,3.7-0.6,5.4c-0.4,1.6-1.1,3.1-2.2,4.4c-1.1,1.3-2.7,2.1-4.4,2.4l7.9,26.5h-4.7l-7.6-25.5h-8.1v25.5L416.3,467.3z
		 M421.2,438.3h6.6c1.8,0.1,3.5-0.3,5.1-1.1c1.2-0.7,2.1-1.9,2.5-3.2c0.6-1.7,0.8-3.5,0.8-5.3c0-3.2-0.6-5.6-1.7-7.2
		c-1.1-1.6-3.3-2.4-6.6-2.4h-6.7L421.2,438.3z"/>
</g>
<g id="freepik--number-2--inject-14">
	<path class="st5" d="M598.4,390.4v-80.2H494v-51.3l89.5-212.1h76.4v213.4H693v50.1h-33.1v80.2L598.4,390.4z M545.8,260.2h52.6
		V114.2L545.8,260.2z"/>
	<path class="st5" d="M659.9,390.9h-61.5c-0.3,0-0.5-0.2-0.5-0.5v-79.7H494c-0.3,0-0.5-0.2-0.5-0.5v-51.3c0-0.1,0-0.1,0-0.2
		l89.6-212.1c0.1-0.2,0.3-0.3,0.5-0.3h76.4c0.3,0,0.5,0.2,0.5,0.5v212.9H693c0.3,0,0.5,0.2,0.5,0.5v50.1c0,0.3-0.2,0.5-0.5,0.5
		h-32.6v79.7C660.4,390.7,660.2,390.9,659.9,390.9C659.9,390.9,659.9,390.9,659.9,390.9z M598.9,389.9h60.5v-79.7
		c0-0.3,0.2-0.5,0.5-0.5h32.6v-49.1h-32.6c-0.3,0-0.5-0.2-0.5-0.5V47.3h-75.5L494.5,259v50.7h103.9c0.3,0,0.5,0.2,0.5,0.5
		L598.9,389.9z M598.4,260.7h-52.6c-0.2,0-0.3-0.1-0.4-0.2c-0.1-0.1-0.1-0.3-0.1-0.5l52.6-145.9c0.1-0.2,0.3-0.4,0.5-0.3
		c0.2,0,0.4,0.2,0.4,0.5v145.9C598.9,260.5,598.7,260.7,598.4,260.7L598.4,260.7z M546.5,259.7h51.4V117.1L546.5,259.7z"/>
</g>
<g id="freepik--number-1--inject-14">
	<path class="st5" d="M149.5,390.4v-80.2H45.2v-51.3l89.5-212.1h76.4v213.4h33.1v50.1h-33.1v80.2L149.5,390.4z M96.9,260.2h52.6
		V114.2L96.9,260.2z"/>
	<path class="st5" d="M211.1,390.9h-61.5c-0.3,0-0.5-0.2-0.5-0.5v-79.7H45.2c-0.3,0-0.5-0.2-0.5-0.5v-51.3c0-0.1,0-0.1,0-0.2
		l89.5-212.1c0.1-0.2,0.3-0.3,0.5-0.3h76.4c0.3,0,0.5,0.2,0.5,0.5v212.9h32.6c0.3,0,0.5,0.2,0.5,0.5v50.1c0,0.3-0.2,0.5-0.5,0.5
		h-32.6v79.7C211.6,390.7,211.3,390.9,211.1,390.9z M150.1,389.9h60.5v-79.7c0-0.3,0.2-0.5,0.5-0.5h32.6v-49.1h-32.6
		c-0.3,0-0.5-0.2-0.5-0.5V47.3H135L45.7,259v50.7h103.9c0.3,0,0.5,0.2,0.5,0.5L150.1,389.9z M149.6,260.7H96.9
		c-0.2,0-0.3-0.1-0.4-0.2c-0.1-0.1-0.1-0.3-0.1-0.5l52.6-145.9c0.1-0.2,0.3-0.4,0.6-0.3c0.2,0,0.4,0.2,0.4,0.5v145.9
		C150,260.5,149.8,260.7,149.6,260.7L149.6,260.7L149.6,260.7z M97.7,259.7H149V117.1L97.7,259.7z"/>
</g>
<g id="freepik--Character--inject-14">
	<path class="st5" d="M367.2,396.4c-20.7,0-37.8-4.2-51.3-12.7c-13.5-8.3-24.1-20.5-30.5-35c-6.8-14.9-10.2-32-10.2-51.5v-154
		c0-20.1,3.3-37.7,9.8-52.8c6.1-14.7,16.6-27,30.1-35.4c13.6-8.5,31-12.7,52.2-12.7c20.9,0,38.1,4.2,51.5,12.7
		c13.4,8.4,23.8,20.8,29.9,35.4c6.5,15.1,9.8,32.7,9.8,52.8v154c0,19.5-3.4,36.7-10.2,51.5c-6.5,14.5-17.1,26.6-30.5,35
		C404.1,392.1,387.2,396.4,367.2,396.4z M367.2,338.7c7.6,0,13.2-2.4,16.5-7.2c3.5-5.1,5.8-11,6.8-17.2c1.1-6.1,1.6-12.3,1.7-18.5
		V144.4c0-6.5-0.5-13.1-1.5-19.5c-0.8-6.3-3.1-12.3-6.6-17.6c-3.4-4.9-9.1-7.4-17-7.4s-13.7,2.5-17.1,7.4c-3.7,5.2-6,11.3-6.8,17.6
		c-1,6.5-1.5,13-1.5,19.5v151.4c0,6.2,0.6,12.4,1.7,18.5c1,6.2,3.4,12.1,7.2,17.2C354.3,336.3,359.8,338.7,367.2,338.7z"/>
	<path class="st5" d="M367.2,396.9c-20.6,0-38-4.3-51.6-12.8c-13.5-8.4-24.2-20.7-30.7-35.2c-6.8-14.9-10.2-32.3-10.2-51.8v-154
		c0-20.1,3.3-37.9,9.8-53c6.2-14.7,16.8-27.2,30.3-35.7c13.6-8.5,31.2-12.8,52.4-12.8c20.9,0,38.4,4.3,51.8,12.8
		c13.5,8.5,24,20.9,30.1,35.6c6.5,15.1,9.8,33,9.8,53v154c0,19.5-3.4,36.9-10.2,51.8c-6.5,14.5-17.2,26.8-30.7,35.2
		C404.3,392.5,387.2,396.9,367.2,396.9z M367.2,42.6c-21,0-38.5,4.3-51.9,12.7c-13.4,8.3-23.8,20.6-29.9,35.2
		c-6.5,15-9.7,32.7-9.7,52.6v154c0,19.4,3.4,36.6,10.1,51.3c6.4,14.4,17,26.5,30.4,34.8c13.4,8.4,30.6,12.6,51.1,12.6
		c19.9,0,36.8-4.2,50.2-12.6c13.4-8.3,23.9-20.4,30.4-34.8c6.7-14.7,10.1-32,10.1-51.3v-154c0-19.9-3.3-37.6-9.7-52.6
		c-6.1-14.5-16.4-26.8-29.7-35.2C405.2,46.9,387.9,42.6,367.2,42.6z M367.2,339.2c-7.5,0-13.2-2.5-16.9-7.4
		c-3.8-5.1-6.3-11.1-7.3-17.4c-1.1-6.1-1.7-12.3-1.7-18.5V144.4c0-6.6,0.5-13.1,1.5-19.6c0.8-6.4,3.2-12.5,6.9-17.8
		c3.6-5.1,9.5-7.6,17.6-7.6s13.9,2.6,17.4,7.6c3.6,5.3,5.8,11.4,6.7,17.8c1,6.5,1.5,13,1.5,19.6v151.4c-0.1,6.2-0.6,12.4-1.7,18.5
		c-1,6.2-3.3,12.2-6.9,17.4C380.6,336.7,375,339.2,367.2,339.2z M367.2,100.3c-7.7,0-13.4,2.4-16.8,7.2c-3.6,5.2-5.9,11.1-6.7,17.4
		c-1,6.4-1.5,12.9-1.5,19.4v151.4c0,6.2,0.6,12.3,1.7,18.4c0.9,6.2,3.4,12,7.1,17c3.6,4.7,9,7,16.1,7c7.4,0,12.9-2.4,16.1-7
		c3.5-5.1,5.8-10.9,6.7-17c1.1-6.1,1.6-12.2,1.7-18.4V144.4c0-6.5-0.5-13-1.5-19.4c-0.8-6.2-3-12.2-6.5-17.4
		C380.5,102.7,374.9,100.3,367.2,100.3z"/>
	<path class="st0" d="M275.1,218.8l3.7,53.5l-23.2-10.8l-5.9,23.5c0,0,49.8,27.8,54.7,26.9s-7.4-109.2-7.4-109.2L275.1,218.8z"/>
	<path class="st5" d="M304.3,312.4c-6.3,0-49.8-24.2-54.8-27c-0.2-0.1-0.3-0.3-0.2-0.5l5.9-23.5c0.1-0.3,0.3-0.4,0.6-0.4
		c0,0,0.1,0,0.1,0l22.4,10.5l-3.6-52.7c0-0.2,0.1-0.3,0.2-0.4l22-16.1c0.1-0.1,0.3-0.1,0.5-0.1c0.2,0.1,0.3,0.2,0.3,0.4
		c0,0.3,3.1,27.4,5.6,54.3c5,54.8,2.5,55.3,1.5,55.5L304.3,312.4z M250.4,284.7c20,11.1,50.6,27.3,54.1,26.7
		c3-2.2-3.1-66.9-7.7-107.8l-21,15.4l3.7,53.2c0,0.2-0.1,0.4-0.2,0.5c-0.2,0.1-0.3,0.1-0.5,0L256,262.2L250.4,284.7z"/>
	<path class="st0" d="M308.6,347.9c0,0,26.7-9.2,37.1-17.9s-44.2-114.8-44.2-114.8S302.3,312.4,308.6,347.9z"/>
	<path class="st5" d="M308.6,348.4c-0.1,0-0.2,0-0.3-0.1c-0.1-0.1-0.2-0.2-0.2-0.4c-6.2-35.1-7.1-131.8-7.1-132.8
		c0-0.2,0.2-0.4,0.4-0.5c0.2-0.1,0.5,0.1,0.6,0.3c2.2,4.3,54.7,106.5,44.1,115.4c-10.4,8.7-37,18-37.3,18
		C308.7,348.3,308.6,348.4,308.6,348.4z M302,217.2c0.2,14.3,1.4,97.4,7,130c3.9-1.4,27-9.8,36.4-17.7
		C353.5,322.7,317.7,247.9,302,217.2z"/>
	<path class="st6" d="M420.4,313.6l-3.1,0.5c0,0.2,0,0.3,0,0.5c-0.2,4-21.7,14.5-36.9,20.3c-3.3,2.6-7.8,3.9-13.3,3.9H367
		c-11.7,1.1-34.2-4-39.2-7.5l-5.5,56l0,0c0.9,0.4,1.8,0.9,2.7,1.3c11.9,5.3,25.9,7.9,42.2,7.9c18.8,0,34.7-3.7,47.8-11.1l0.3-0.2
		c0.8-0.5,1.6-1,2.5-1.5s1.9-1.2,2.8-1.9l0.9-0.6l1.9-1.4l0.9-0.7c0.6-0.5,1.3-1,1.9-1.5l0.8-0.6c0.9-0.7,1.7-1.4,2.5-2.2l0,0
		C425.8,350,420.4,313.6,420.4,313.6z"/>
	<path class="st5" d="M367.2,396.9c-16.2,0-30.5-2.7-42.4-7.9c-0.9-0.4-1.8-0.8-2.7-1.3c-0.1,0-0.2-0.1-0.2-0.2c0-0.1-0.1-0.2,0-0.3
		l5.5-56c0-0.2,0.1-0.3,0.3-0.4c0.2-0.1,0.3-0.1,0.5,0c5,3.4,27.4,8.5,38.9,7.4h0.2c5.5,0,9.8-1.3,13-3.8l0.1-0.1
		c16.4-6.2,36.3-16.4,36.5-19.8c0-0.1,0-0.2,0-0.4c0-0.3,0.2-0.5,0.4-0.6l3.1-0.5c0.3,0,0.5,0.1,0.6,0.4c0,0.4,5.5,36.7,8.9,61.2
		c0,0.1,0,0.3-0.1,0.4l-0.1,0.1c-0.7,0.7-1.5,1.4-2.5,2.2l-0.8,0.6c-0.6,0.5-1.2,1-1.9,1.5l-0.9,0.7c-0.6,0.5-1.3,0.9-2,1.4
		l-0.3,0.2l-0.6,0.4c-1,0.7-2,1.3-2.9,1.9s-1.6,1-2.5,1.5l-0.3,0.2C402.1,393.1,385.9,396.9,367.2,396.9z M322.8,386.9
		c0.8,0.4,1.6,0.7,2.4,1.1c11.8,5.2,25.9,7.9,42,7.9c18.6,0,34.6-3.7,47.5-11l0.3-0.2c0.8-0.5,1.6-1,2.4-1.5s1.8-1.1,2.8-1.9
		l0.6-0.4l0.3-0.2c0.6-0.5,1.3-0.9,1.9-1.4l0.9-0.7c0.6-0.5,1.2-1,1.9-1.5l0.8-0.6c0.9-0.7,1.6-1.4,2.3-2c-3.2-22.9-8.1-56-8.8-60.4
		l-2.1,0.3v0.1c-0.3,4.8-24.7,16-37.1,20.7c-3.4,2.6-8,3.9-13.6,3.9h-0.1c-11.6,1.1-32.7-3.7-38.9-7.2L322.8,386.9z M322.3,387.1
		L322.3,387.1z"/>
	<path class="st4" d="M300.6,248.6c0,0,24.7,60.4,25.1,62.6s-2.5,15.9,1.5,19.5s30.5,9.8,41.9,7.6s48-18.6,48.3-23.8
		S381,207.9,376.4,195.7s-23.2-16.5-35.8-15.3s-42.8,9.2-48.3,16.8S300.6,248.6,300.6,248.6z"/>
	<path class="st5" d="M363.3,339.3c-12.9,0-32.8-4.9-36.4-8.2c-3.1-2.9-2.4-11.4-1.9-16.4c0.1-1.1,0.2-2.3,0.2-3.4
		c-0.3-1.8-18.1-45.7-25-62.5l0,0c-0.6-1.8-13.8-44-8.2-51.8c5.8-8.1,37-15.9,48.6-17c12.2-1.2,31.5,2.9,36.3,15.6
		c3.9,10.5,41.3,113.6,41,119.1c-0.3,5.8-37.8,22.2-48.7,24.3C367.3,339.2,365.3,339.4,363.3,339.3z M301.1,248.4
		c2.6,6.3,24.8,60.6,25.1,62.7c0,1.2,0,2.4-0.2,3.6c-0.4,4.6-1.2,13,1.6,15.6c4,3.7,30.4,9.6,41.4,7.5c12.4-2.3,47.6-18.8,47.9-23.4
		c0.3-4.9-35.8-104.9-40.9-118.6c-4.6-12.2-23.4-16.1-35.2-15c-12.9,1.3-42.7,9.3-47.9,16.6S300.8,247.2,301.1,248.4z"/>
	<path class="st4" d="M302.8,192.3c0,0-3,27.8-1.2,33.6s10.2,21.8,10.2,21.8s14-17.5,16.7-19.3s28.1,14.4,28.1,14.4
		s0.9-17.4-2.8-31.8s-10.1-29.9-12.2-32.7s-2.1,7.3-10.1,14.1S302.8,192.3,302.8,192.3z"/>
	<path class="st5" d="M311.7,248.2L311.7,248.2c-0.2,0-0.3-0.1-0.4-0.3c-0.3-0.6-8.4-16.1-10.2-21.9s1.1-32.7,1.2-33.8
		c0-0.1,0.1-0.3,0.2-0.4c0.1-0.1,0.3-0.1,0.4-0.1c0.2,0.1,20.6,6.6,28.2,0.1c4.3-3.7,6.2-8.3,7.5-11.4c0.8-2,1.3-3.1,2.1-3.2
		c0.5,0,0.9,0.3,1.2,0.7c2.3,3,8.7,18.9,12.3,32.9c3.6,14.3,2.8,31.8,2.8,31.9c0,0.2-0.1,0.3-0.3,0.4c-0.2,0.1-0.3,0.1-0.5,0
		c-12.3-7.9-26-15.4-27.6-14.4c-2.1,1.4-11.8,13.1-16.6,19.1C312,248.1,311.9,248.2,311.7,248.2z M303.2,193
		c-0.4,4.1-2.8,27.6-1.2,32.8c1.6,5,8.2,17.9,9.8,21c2.5-3.1,13.8-17.1,16.4-18.8c2.7-1.8,22.4,10.4,27.9,13.9
		c0.1-3.7,0.4-18.4-2.8-30.8c-3.8-14.8-10.1-29.9-12.1-32.5c-0.2-0.2-0.3-0.3-0.3-0.3c-0.6,0.8-1,1.7-1.3,2.6
		c-1.2,3-3.2,7.9-7.8,11.8C324.4,199,306.7,194.1,303.2,193z"/>
	<path class="st4" d="M300.5,197.2c3.1,7.2,7,14.1,11.5,20.4c5.4,7.3,11.7,13.8,18.8,19.5c0,0,8.6-22.1,10.9-35.3
		s-1.6-26.4-1.6-26.4s-1.6,19.8-8.6,23.8S300.5,197.2,300.5,197.2z"/>
	<path class="st5" d="M330.9,237.6c-0.1,0-0.2,0-0.3-0.1c-7.1-5.6-13.5-12.2-18.9-19.6c-4.6-6.4-8.5-13.3-11.6-20.6
		c-0.1-0.3,0-0.5,0.3-0.6c0.1,0,0.2,0,0.3,0c0.2,0.1,24,5.8,30.6,2s8.3-23.2,8.3-23.4c0-0.2,0.2-0.4,0.4-0.4c0.2,0,0.5,0.1,0.5,0.4
		c0,0.1,4,13.5,1.7,26.6s-10.8,35.2-10.9,35.4c-0.1,0.1-0.2,0.3-0.3,0.3L330.9,237.6z M301.4,197.9c3.1,6.8,6.8,13.3,11.1,19.4
		c5.2,7.1,11.3,13.5,18.2,18.9c1.4-3.7,8.6-22.8,10.6-34.6c1.7-9.4,0-19-1-23.5c-0.7,5.7-3,18.2-8.5,21.4
		C325.5,203.2,306,199,301.4,197.9z"/>
	<path class="st5" d="M318.6,200.3c-6.1-0.6-12.1-1.7-18.1-3.1c3.1,7.2,7,14.1,11.5,20.4c0.8,1.1,1.6,2.1,2.4,3.1l13.6-15.8
		L318.6,200.3z"/>
	<path class="st5" d="M314.4,221.3L314.4,221.3c-0.1,0-0.3-0.1-0.4-0.2c-0.9-1.2-1.7-2.2-2.4-3.2c-4.6-6.4-8.5-13.3-11.6-20.6
		c-0.1-0.3,0-0.5,0.3-0.6c0.1,0,0.2,0,0.3,0c5.9,1.4,11.9,2.4,18,3.1c0.1,0,0.1,0,0.2,0.1l9.5,4.7c0.2,0.1,0.3,0.4,0.2,0.7
		c0,0,0,0.1-0.1,0.1l-13.6,15.8C314.7,221.2,314.6,221.3,314.4,221.3z M301.4,197.9c3.1,6.8,6.8,13.4,11.1,19.4
		c0.6,0.8,1.2,1.7,2,2.6l12.8-14.8l-8.8-4.4C312.7,200.2,307,199.2,301.4,197.9z"/>
	<path class="st0" d="M340.1,175.4c0,0,10,40.1,13.7,70.4s12.5,119.8,12.5,119.8s27.5-7.9,41.9-18.3s18.9-17.4,18.9-17.4
		s-23.5-103-23.5-104.5s2.4-16.8,2.4-16.8s41.5-19.5,57.4-31.5s11.9-18.3,4.3-21.4s-31.5,0.3-44.6,4s-19.9,6.1-19.9,6.1
		s-14.7-1.2-28.1,1.8S340.1,175.4,340.1,175.4z"/>
	<path class="st5" d="M366.3,366.1c-0.1,0-0.2,0-0.3-0.1c-0.1-0.1-0.2-0.2-0.2-0.4c-0.1-0.9-8.9-89.9-12.5-119.8
		s-13.6-69.9-13.7-70.3c-0.1-0.3,0.1-0.5,0.4-0.6c0.2,0,21.8-4.8,35.1-7.8c12.8-2.9,26.8-2,28.1-1.9c0.9-0.3,7.7-2.7,19.8-6.1
		c13.2-3.7,37.2-7,44.9-4c4.2,1.7,6.6,4.1,7,6.9c0.6,4.2-3.2,9.4-11.1,15.3c-15.1,11.3-53.9,29.8-57.3,31.4
		c-0.9,5.3-2.4,15.3-2.4,16.5c0.1,1.7,15.4,69,23.5,104.4c0,0.1,0,0.3-0.1,0.4c-0.2,0.3-4.8,7.2-19.1,17.5s-41.7,18.3-42,18.4
		C366.4,366,366.4,366.1,366.3,366.1z M340.7,175.8c1.2,4.7,10.2,41.8,13.6,70c3.5,28.6,11.7,111.2,12.5,119.1
		c4-1.2,28.1-8.7,41.1-18.1s17.9-16,18.7-17.1c-2.6-11.5-23.5-102.9-23.5-104.4s2.4-16.3,2.5-16.9c0-0.2,0.1-0.3,0.3-0.4
		c0.4-0.2,41.7-19.7,57.4-31.4c7.6-5.7,11.2-10.6,10.7-14.4c-0.3-2.5-2.5-4.6-6.3-6.1c-7.5-3-31.2,0.4-44.3,4s-19.8,6.1-19.8,6.1
		c-0.1,0-0.1,0-0.2,0c-0.1,0-14.8-1.2-28,1.8C363.1,170.8,344,175.1,340.7,175.8z"/>
	<path class="st4" d="M361.2,278.1l-1.6,5"/>
	<path class="st5" d="M359.6,283.6h-0.1c-0.3-0.1-0.4-0.4-0.3-0.6c0,0,0,0,0,0c0.6-1.8,1.1-3.4,1.6-5c0.1-0.3,0.4-0.4,0.6-0.4
		s0.4,0.4,0.4,0.6c-0.5,1.5-1,3.2-1.6,5C360,283.5,359.8,283.6,359.6,283.6z"/>
	<path class="st5" d="M362.5,274.5h-0.1c-0.3-0.1-0.4-0.4-0.3-0.6c2.1-6.9,3.6-14,4.4-21.1c2-14.3,3.5-36.6,3.6-39.4l-4.4-2.8
		c-0.2-0.1-0.3-0.4-0.2-0.7c0.1-0.2,0.4-0.3,0.7-0.2c0,0,0,0,0,0l4.7,3c0.2,0.1,0.2,0.3,0.2,0.5c0,0.2-1.6,24.5-3.7,39.8
		c-0.9,7.2-2.3,14.3-4.4,21.2C362.9,274.4,362.7,274.5,362.5,274.5z"/>
	<path class="st5" d="M363.4,209c-0.1,0-0.2,0-0.3-0.1l-2.9-1.8c-0.2-0.1-0.3-0.4-0.2-0.7c1.8-3.4,4.5-8.9,4.5-10.1
		c0-0.3-0.5-2.3-7.4-14.9c-0.1-0.2,0-0.5,0.2-0.7c0.2-0.1,0.5,0,0.7,0.2c7.5,13.9,7.5,15,7.5,15.4c0,1.7-3.4,8.4-4.4,10.2l2.5,1.6
		c0.2,0.1,0.3,0.5,0.1,0.7C363.7,208.9,363.6,209,363.4,209z"/>
	<path class="st4" d="M354.7,175.9l1.2,2.2"/>
	<path class="st5" d="M356,178.6c-0.2,0-0.3-0.1-0.4-0.2c-0.8-1.4-1.2-2.3-1.2-2.3c-0.1-0.2,0-0.5,0.2-0.7c0.2-0.1,0.5,0,0.7,0.2
		c0,0,0,0,0,0c0,0,0.5,0.9,1.2,2.2c0.1,0.2,0.1,0.5-0.2,0.7c0,0,0,0,0,0C356.2,178.6,356.1,178.6,356,178.6z"/>
	<path class="st5" d="M380.7,332.8c-0.2,0-0.4-0.1-0.5-0.4l-2.1-7.3c-0.1-0.3,0.1-0.5,0.3-0.6c0,0,2.5-0.9,16.8-6.4
		c5.5-2,10.7-4.7,15.5-8c0.2-0.2,0.5-0.1,0.7,0.1c0.2,0.2,0.1,0.5-0.1,0.7c0,0,0,0,0,0c-4.9,3.3-10.2,6-15.7,8.1
		c-11.3,4.3-15.2,5.8-16.4,6.2l1.9,6.5c3.4-0.7,25.4-5.6,35.9-17.5c0.2-0.2,0.5-0.2,0.7,0c0,0,0,0,0,0c0.2,0.2,0.2,0.5,0,0.7
		C406.1,328.1,381,332.8,380.7,332.8L380.7,332.8z"/>
	<path class="st4" d="M416.1,306.3c-0.6,0.6-1.3,1.3-2,1.8"/>
	<path class="st5" d="M414.1,308.6c-0.1,0-0.3-0.1-0.4-0.2c-0.2-0.2-0.1-0.5,0.1-0.7c0,0,0,0,0,0c0.7-0.6,1.4-1.1,2-1.8
		c0.2-0.2,0.5-0.2,0.7,0c0.2,0.2,0.2,0.5,0,0.7c-0.7,0.7-1.4,1.3-2.1,1.9C414.3,308.6,414.2,308.6,414.1,308.6z"/>
	<path class="st5" d="M406,209c-0.1,0-0.2,0-0.2-0.1c-0.2-0.1-0.3-0.4-0.2-0.6l5.5-16.2c0.1-0.3,0.3-0.4,0.6-0.4s0.4,0.3,0.4,0.6
		c0,0,0,0.1,0,0.1l-4.3,12.6l10.7-16.1c0.1-0.2,0.4-0.3,0.7-0.1c0,0,0,0,0,0c0.2,0.2,0.3,0.5,0.1,0.7l-12.8,19.2
		C406.4,208.9,406.2,209,406,209z"/>
	<line class="st7" x1="414" y1="185" x2="412.7" y2="188.8"/>
	<path class="st5" d="M412.7,189.2c-0.1,0-0.1,0-0.2,0c-0.3-0.1-0.4-0.4-0.3-0.6l1.3-3.8c0.1-0.3,0.4-0.4,0.7-0.3s0.4,0.4,0.3,0.7
		l-1.3,3.8C413.2,189.1,413,189.3,412.7,189.2z"/>
	<path class="st0" d="M302.8,192.3c0,0,3.1,55.6,6.4,82.8s8.9,94.4,8.9,94.4s-10.7-0.9-17.7-9.5c-3.9-4.7-7.4-9.7-10.4-15v-60.5
		c0-2.5-4.9-30.2-9.5-44s-11.3-29.6-7.3-36.4s16.5-16.8,21.1-18S302.5,186.2,302.8,192.3z"/>
	<path class="st5" d="M318.1,370L318.1,370c-0.5,0-11-1-18.1-9.6c-3.9-4.7-7.4-9.7-10.4-15c0-0.1-0.1-0.2-0.1-0.2v-60.5
		c0-2.6-5-30.4-9.4-43.8c-0.7-2.1-1.5-4.4-2.3-6.6c-4.2-12-8.5-24.3-5-30.2c4-6.8,16.5-17,21.4-18.2c2.8-0.8,5-0.6,6.6,0.6
		s2.4,3.1,2.5,6l0,0c0,0.6,3.1,55.9,6.4,82.8s8.8,93.8,8.9,94.4c0,0.1,0,0.3-0.1,0.4C318.4,370,318.2,370,318.1,370z M290.5,345
		c3,5.2,6.4,10.2,10.3,14.8c5.9,7.1,14.5,8.9,16.8,9.2c-0.6-6.8-5.7-68.3-8.8-93.8c-3.3-26.9-6.4-82.3-6.4-82.8l0,0
		c-0.1-2.5-0.8-4.3-2.1-5.2s-3.3-1.1-5.8-0.4c-4.2,1.1-16.7,11-20.8,17.8c-3.2,5.5,1,17.6,5.1,29.4c0.8,2.2,1.5,4.4,2.3,6.6
		c4.5,13.5,9.5,41.6,9.5,44.2L290.5,345z"/>
	<path class="st4" d="M301.1,262.2c1.7,5.4,3.4,10.2,4.8,13.3"/>
	<path class="st5" d="M305.8,275.9c-0.2,0-0.4-0.1-0.5-0.3c-1.2-2.8-2.9-7.3-4.8-13.3c-0.1-0.3,0.1-0.5,0.3-0.6
		c0.3-0.1,0.5,0.1,0.6,0.3c0,0,0,0,0,0c1.9,6,3.5,10.4,4.8,13.2c0.1,0.3,0,0.5-0.3,0.7C306,275.9,305.9,275.9,305.8,275.9z"/>
	<path class="st5" d="M299.9,258.9c-0.2,0-0.4-0.1-0.5-0.4c-4-12.9-8.1-28.3-8.7-31c-0.9-3.7,3.8-10,5-11.7c-1.1-1-4.7-4.2-5.8-5.2
		c-0.3-0.3-0.7-0.7,0.2-7.9c0-0.3,0.3-0.5,0.6-0.4c0.3,0,0.5,0.3,0.4,0.6c-0.8,5.9-0.5,6.9-0.5,7.1c1.2,1.1,6,5.4,6,5.4
		c0.2,0.2,0.2,0.5,0.1,0.7c-0.1,0.1-6,7.5-5.1,11.2c0.6,2.7,4.7,18,8.7,30.9c0.1,0.3-0.1,0.5-0.3,0.6
		C300,258.9,299.9,258.9,299.9,258.9z"/>
	<path class="st4" d="M293.9,182.6c0,0-1.6,8.8-2.8,16.4"/>
	<path class="st5" d="M291.2,199.5L291.2,199.5c-0.3,0-0.5-0.3-0.5-0.6c1.1-7.6,2.7-16.4,2.8-16.5c0.1-0.3,0.3-0.4,0.6-0.4
		c0.3,0.1,0.5,0.3,0.4,0.6c0,0.1-1.6,8.8-2.8,16.4C291.6,199.3,291.4,199.5,291.2,199.5z"/>
	<line class="st7" x1="297.5" y1="323.8" x2="292.1" y2="321.3"/>
	<path class="st5" d="M297.5,324.3c-0.1,0-0.1,0-0.2,0l-5.4-2.5c-0.2-0.1-0.3-0.5-0.2-0.7c0.1-0.2,0.4-0.3,0.6-0.2l5.4,2.5
		c0.2,0.1,0.4,0.4,0.2,0.7C297.9,324.2,297.7,324.3,297.5,324.3z"/>
	<path class="st5" d="M307.1,328.8c-0.1,0-0.1,0-0.2,0l-6.9-3.2c-0.3-0.1-0.4-0.4-0.2-0.7c0,0,0,0,0,0c0.1-0.2,0.4-0.4,0.6-0.2
		c0,0,0,0,0,0l6.1,2.9v-8l-14.7-6c-0.3-0.1-0.4-0.4-0.3-0.7s0.4-0.4,0.7-0.3l0,0l15,6.1c0.2,0.1,0.3,0.3,0.3,0.5v9.2
		c0,0.2-0.1,0.3-0.2,0.4C307.3,328.8,307.2,328.8,307.1,328.8z"/>
	<path class="st4" d="M280,155.6l5.2,12.8c0,0-6.8-7.1-8.4-0.8s3.1,13.6,6.3,13.6s6.8,0.3,6.8,0.3s11,19.3,17.8,23
		s15.9,6.8,21.7,3.6s8.9-11.8,10.7-18.3s0.5-26.1,0.5-26.1l-9.4-38.7c0,0,6.5-2.3,6.5-6.8s-15.1-5.7-15.1-5.7s6-7-1.6-8.1
		S288.8,118,288,118.5s4.2-9.1-2.1-5.7s-13.6,20.1-12.8,24S280,155.6,280,155.6z"/>
	<path class="st5" d="M323.6,209.8c-6.1,0-13-3.2-16.2-5c-6.5-3.5-16.5-20.6-17.8-22.9c-0.9-0.1-3.9-0.2-6.5-0.2c-1.2,0-2.7-1-4-2.6
		c-2.1-2.7-3.8-7.4-2.8-11.6c0.4-1.6,1.2-2.6,2.3-2.9c1.7-0.4,3.8,0.8,5.3,2l-4.4-10.8l0,0c-0.2-0.6-6-15-6.8-18.9s6.4-21,13-24.6
		c1.6-0.9,2.7-1,3.4-0.4c1.1,0.9,0.5,3.2-0.3,5.6v0.1c4.8-2.8,25.3-14.6,32.3-13.6c2.2,0.3,3.5,1.1,4,2.4c0.8,2-0.7,4.5-1.6,5.7
		c3.5,0.4,14.7,1.9,14.7,6.2c0,4.1-4.9,6.5-6.4,7.1l9.3,38.2c0.1,0.9,1.3,19.8-0.5,26.4c-2.8,10-6.4,16.1-10.9,18.6
		C327.7,209.4,325.7,209.9,323.6,209.8z M279.4,165.5c-0.2,0-0.3,0-0.5,0.1c-0.8,0.2-1.3,0.9-1.6,2.1c-1,3.9,0.6,8.2,2.6,10.7
		c1.1,1.4,2.3,2.2,3.2,2.2c3.1,0,6.8,0.3,6.8,0.3c0.2,0,0.3,0.1,0.4,0.2c0.1,0.2,11,19.2,17.6,22.8c4.2,2.3,14.7,7.2,21.2,3.6
		c4.3-2.4,7.7-8.2,10.5-18c1.8-6.4,0.5-25.8,0.5-25.9l-9.4-38.6c-0.1-0.2,0.1-0.5,0.3-0.6c0.1,0,6.2-2.3,6.2-6.3
		c0-2.9-9-4.8-14.7-5.2c-0.3,0-0.5-0.3-0.5-0.5c0-0.1,0-0.2,0.1-0.3c0.8-0.9,2.7-3.7,2-5.5c-0.4-1-1.5-1.6-3.2-1.8
		c-7.1-1-30.7,12.8-32.5,14c-0.2,0.1-0.5,0.1-0.6,0c-0.4-0.3-0.2-0.6,0.1-1.8s1.3-3.9,0.6-4.5c-0.1-0.1-0.6-0.3-2.2,0.6
		c-6.1,3.3-13.2,20-12.5,23.5c0.8,3.8,6.7,18.6,6.8,18.7l5.2,12.8c0.1,0.3,0,0.5-0.3,0.7c-0.2,0.1-0.4,0-0.5-0.1
		C283.9,167.8,281.3,165.5,279.4,165.5z"/>
	<path class="st6" d="M322.5,112.5c0,0,6-7-1.6-8.1S288.8,118,288,118.5s4.2-9.1-2.1-5.7s-13.6,20.1-12.8,24s6.8,18.8,6.8,18.8
		l5.2,12.8c0,0,6,5.5,3.9,1.3s-6.3-13.6-5.2-14.9s6.3-3.4,6.5-6.3s-5-11.2-3.4-13.3s23.8,1.8,27.7-0.5s-1-8.1-1-8.1l17.5-1.6
		c0,0,6.5-2.3,6.5-6.8S322.5,112.5,322.5,112.5z"/>
	<path class="st5" d="M289.3,171.7c-0.5,0-1.7-0.5-4.5-3c-0.1,0-0.1-0.1-0.1-0.2l-5.2-12.8c-0.2-0.6-6-15-6.8-18.9s6.4-21,13-24.6
		c1.6-0.9,2.7-1,3.4-0.4c1.1,0.9,0.5,3.2-0.3,5.6v0.1c4.8-2.8,25.3-14.6,32.3-13.6c2.2,0.3,3.5,1.1,4,2.4c0.8,2-0.7,4.5-1.6,5.7
		c3.5,0.4,14.7,1.9,14.7,6.2c0,4.7-6.6,7.2-6.9,7.3h-0.1l-16.6,1.5c0.9,1.2,2.4,3.6,2,5.7c-0.2,1-0.8,1.9-1.7,2.4
		c-2.2,1.3-9.1,0.8-15.8,0.4c-4.7-0.3-11.1-0.8-11.7,0c-0.7,1,0.6,4.3,1.7,6.9c1,2.4,1.9,4.8,1.8,6.1c-0.2,2.2-2.7,3.8-4.7,5.1
		c-0.7,0.4-1.3,0.9-1.9,1.4c-0.6,0.8,1.9,7.7,5.3,14.4c0.4,0.9,0.8,1.7,0.2,2.1C289.6,171.7,289.5,171.7,289.3,171.7z M285.6,168.1
		c1,1,2.2,1.8,3.4,2.6c-0.1-0.3-0.2-0.5-0.3-0.8c-0.3-0.6-6.7-13.5-5.2-15.4c0.6-0.6,1.4-1.2,2.1-1.6c1.7-1.1,4.1-2.7,4.3-4.4
		c0.1-1.1-0.8-3.4-1.7-5.6c-1.4-3.4-2.6-6.5-1.6-7.9c0.9-1.2,5.1-0.9,12.6-0.4c6.2,0.4,13.3,0.9,15.2-0.2c0.7-0.3,1.1-1,1.2-1.7
		c0.4-2.4-2.4-5.6-2.4-5.6c-0.1-0.1-0.1-0.3-0.1-0.5c0.1-0.2,0.2-0.3,0.4-0.3l17.4-1.6c0.6-0.2,6.1-2.5,6.1-6.3
		c0-2.9-9-4.8-14.7-5.2c-0.3,0-0.5-0.3-0.5-0.5c0-0.1,0-0.2,0.1-0.3c0.8-0.9,2.7-3.7,2-5.5c-0.4-1-1.5-1.6-3.2-1.8
		c-7.1-1-30.7,12.8-32.5,14c-0.2,0.1-0.5,0.1-0.6,0c-0.4-0.3-0.2-0.6,0.1-1.8s1.3-3.9,0.6-4.5c-0.1-0.1-0.6-0.3-2.2,0.6
		c-6.1,3.3-13.2,20-12.5,23.5c0.8,3.8,6.7,18.6,6.8,18.7L285.6,168.1z M331.1,125.1L331.1,125.1z"/>
	<path class="st4" d="M325.9,177c0,0-2.4,4.4-6,4.7"/>
	<path class="st5" d="M319.9,182.2c-0.3,0-0.5-0.2-0.5-0.5s0.2-0.5,0.5-0.5c3.3-0.2,5.6-4.4,5.6-4.4c0.1-0.3,0.4-0.4,0.6-0.3
		c0.3,0.1,0.4,0.4,0.3,0.6c0,0,0,0.1-0.1,0.1C326.3,177.4,323.9,181.9,319.9,182.2L319.9,182.2z"/>
	<path class="st5" d="M309.7,165c0.7,1.6,0.4,3.3-0.7,3.8s-2.6-0.3-3.3-1.9s-0.4-3.3,0.7-3.8S309,163.4,309.7,165z"/>
	<ellipse transform="matrix(0.9876 -0.1573 0.1573 0.9876 -21.2667 53.653)" class="st5" cx="328.3" cy="161.2" rx="2.2" ry="3.1"/>
	<path class="st4" d="M319.9,191.6c2.7-0.1,5.3-0.9,7.6-2.4"/>
	<path class="st5" d="M319.9,192.1c-0.3,0-0.5-0.2-0.5-0.5s0.2-0.5,0.5-0.5c2.6-0.1,5.1-0.8,7.3-2.2c0.2-0.2,0.5-0.1,0.7,0.1
		c0.2,0.2,0.1,0.5-0.1,0.7C325.4,191.2,322.7,192.1,319.9,192.1z"/>
	<path class="st5" d="M296.7,162.6c-0.2,0-0.4-0.1-0.6-0.2c-0.4-0.3-0.6-0.9-0.2-1.4c0.2-0.2,4.2-5.8,14.7-2.5
		c0.5,0.2,0.8,0.7,0.7,1.3c-0.2,0.5-0.7,0.8-1.3,0.7l0,0c-9-2.9-12.3,1.5-12.5,1.7C297.3,162.4,297,162.6,296.7,162.6z"/>
	<path class="st5" d="M323,157.6c-0.1,0-0.2,0-0.3,0c-0.5-0.2-0.8-0.7-0.7-1.2c0,0,0,0,0,0c1.5-4.2,5.3-7,9.8-7.2
		c0.6,0,1,0.4,1.1,0.9c0,0.6-0.4,1-0.9,1.1c-3.6,0.1-6.8,2.4-8,5.8C323.8,157.4,323.4,157.6,323,157.6z"/>
	<path class="st4" d="M337.7,151.4c0,0,1.8-4.2,3.9-1.6s2.9,7.8,1.6,11.2s-2.1,6.3-2.1,6.3l-0.5-3.7L337.7,151.4z"/>
	<path class="st5" d="M341.1,167.8L341.1,167.8c-0.2,0-0.4-0.2-0.5-0.4l-0.5-3.7l-2.9-12.2c0-0.1,0-0.2,0-0.3
		c0.1-0.2,1.1-2.5,2.7-2.7c0.8-0.1,1.6,0.3,2,1c2.2,2.8,3,8.2,1.6,11.7c-1.3,3.3-2.1,6.2-2.1,6.2
		C341.5,167.6,341.3,167.8,341.1,167.8z M338.2,151.5l2.8,12.1l0.2,1.5c0.4-1.1,0.9-2.6,1.5-4.1c1.2-3.2,0.5-8.2-1.5-10.7
		c-0.4-0.5-0.8-0.7-1.1-0.7C339.2,149.6,338.5,150.8,338.2,151.5L338.2,151.5z"/>
	<path class="st4" d="M385.7,131c0,0-28.7-5.2-30.5-5.2s-23.2,3.9-26.4,5.2s-26.9,8.1-26.4,9.7s3.4,2.1,3.4,2.1s0.5,2.4,8.9,3.4
		s27.9-1.6,28.2,0.3c0.1,1.3-0.4,2.5-1.3,3.4l2.4,4.2c0,0,8.6-1.3,11.5-3.4s11-8.6,11-8.6l17.5,1.3L385.7,131z"/>
	<path class="st5" d="M343.9,154.5c-0.2,0-0.3-0.1-0.4-0.2l-2.4-4.2c-0.1-0.2-0.1-0.4,0.1-0.6c0.7-0.8,1.2-1.8,1.2-2.9
		c-0.8-0.6-6.8-0.3-11.6,0c-5.7,0.3-12.2,0.6-16.2,0.1c-7-0.9-8.7-2.7-9.2-3.4c-0.8-0.2-3-0.8-3.5-2.4c-0.1-0.2,0-0.4,0-0.5
		c0.6-1.2,6.8-3.4,19.5-7.4c3.3-1.1,6.2-2,7.1-2.3c3.1-1.3,24.6-5.3,26.6-5.3s29.5,5,30.6,5.2c0.3,0.1,0.4,0.3,0.4,0.6l-1.8,12.3
		c0,0.3-0.3,0.4-0.5,0.4l-17.3-1.3c-1.1,0.9-8.2,6.6-10.8,8.5C352.8,153.2,344.4,154.5,343.9,154.5L343.9,154.5z M342.2,149.9l2,3.6
		c1.6-0.3,8.5-1.5,10.9-3.2c2.8-2,10.9-8.5,11-8.6c0.1-0.1,0.2-0.1,0.4-0.1l17,1.3l1.7-11.3c-10-1.8-28.6-5.1-30-5.1
		c-1.9,0-23.1,3.9-26.2,5.2c-1,0.4-3.7,1.3-7.2,2.4c-6.2,2-17.6,5.6-18.9,6.8c0.5,1,2.3,1.5,3,1.6c0.2,0,0.4,0.2,0.4,0.4l0,0
		c0,0,0.8,2,8.5,3c3.9,0.5,10.3,0.2,16-0.1c9.4-0.5,12.4-0.5,12.6,0.8C343.4,147.6,343,148.9,342.2,149.9z"/>
	<path class="st4" d="M322,134.7c0,0-11.8,5-13.6,6s3.4,3.1,6.5,2.6s15.1-5.2,17-5.8s10.2,1.6,16.2,2.4c3.8,0.6,7.7,0,11.2-1.6"/>
	<path class="st5" d="M313.9,143.9c-2.6,0-5.9-1.2-6.3-2.4c-0.2-0.5,0.1-1.1,0.6-1.3c1.8-1.1,13.1-5.8,13.6-6c0.3-0.1,0.5,0,0.7,0.3
		c0,0,0,0,0,0c0.1,0.3,0,0.5-0.3,0.6c-0.1,0.1-11.7,5-13.5,6c-0.1,0-0.1,0.1-0.1,0.1c0.1,0.6,3.7,2,6.3,1.6
		c2.1-0.3,8.4-2.6,12.5-4.2c2.1-0.8,3.8-1.4,4.4-1.6c1.2-0.3,4.2,0.2,9,1.1c2.5,0.5,5.1,1,7.4,1.3c3.7,0.6,7.5,0,10.9-1.5
		c0.2-0.1,0.5,0,0.7,0.2c0.1,0.2,0,0.5-0.2,0.7c0,0,0,0,0,0c-3.6,1.6-7.6,2.2-11.6,1.6c-2.3-0.3-4.9-0.8-7.5-1.3
		c-3.7-0.7-7.5-1.4-8.5-1.1c-0.6,0.2-2.2,0.8-4.4,1.6c-4.4,1.6-10.5,3.9-12.7,4.2C314.6,143.8,314.3,143.9,313.9,143.9z"/>
	<path class="st0" d="M456.5,172.8c-6.6,1.5-13.5,1.5-20.2,0c-11-2.4-40-16.8-40-16.8l-19.9-5.8L381,127c0,0,50.1,6.1,64.2,11.3
		s34.5,17.1,33.9,21.4s-11.9,13.4-11.9,13.4"/>
	<path class="st5" d="M446.4,174.4c-3.4,0-6.8-0.4-10.2-1.1c-10.9-2.4-39-16.2-40.1-16.8l-19.8-5.8c-0.2-0.1-0.4-0.3-0.4-0.6
		l4.6-23.2c0.1-0.3,0.3-0.4,0.5-0.4c0.5,0.1,50.3,6.2,64.3,11.3c13.7,5.1,34.9,17.1,34.2,21.9c-0.6,4.4-11.6,13.4-12.1,13.8
		c-0.2,0.2-0.5,0.1-0.7-0.1c-0.2-0.2-0.1-0.5,0.1-0.7c3.1-2.5,11.3-9.8,11.7-13.1c0.5-3.5-18.3-15.2-33.6-20.9
		c-13.1-4.9-58.5-10.6-63.6-11.2l-4.4,22.3l19.4,5.7c0.4,0.2,29.2,14.4,40,16.8c6.6,1.4,13.4,1.4,19.9,0c0.3-0.1,0.6,0.1,0.6,0.4
		s-0.1,0.6-0.4,0.6C453.2,174,449.8,174.4,446.4,174.4z"/>
	<path class="st5" d="M311.4,288.6c-13.6,0-26.7-14.9-27.4-15.6c-0.2-0.2-0.2-0.5,0-0.7c0.2-0.2,0.5-0.2,0.7,0c0,0,0.1,0.1,0.1,0.1
		c0.2,0.2,18.3,20.7,33.3,13.9s22.8-51.6,22.9-52.1c0.1-0.3,0.3-0.5,0.6-0.4c0.3,0.1,0.5,0.3,0.4,0.6c-0.3,1.9-7.9,45.7-23.5,52.8
		C316.2,288.1,313.8,288.6,311.4,288.6z"/>
	<path class="st5" d="M291.6,273.8c-18.1,0-31.6-16.6-31.7-16.8c-0.2-0.2-0.1-0.5,0.1-0.7c0.2-0.2,0.5-0.1,0.7,0.1c0,0,0,0,0,0
		c0.1,0.2,14.6,18,33.5,16.3c19.3-1.7,25.4-24.6,25.2-34.7c0-0.3,0.2-0.5,0.5-0.5c0.3,0,0.5,0.2,0.5,0.5c0.2,10.5-6.1,34-26.1,35.7
		C293.3,273.8,292.4,273.8,291.6,273.8z"/>
	
		<rect x="245.6" y="255.4" transform="matrix(0.3185 -0.9479 0.9479 0.3185 -67.514 423.4711)" class="st8" width="30.4" height="6.5"/>
	<path class="st5" d="M259,274.6c-0.1,0-0.1,0-0.2,0l-6.1-2.1c-0.1,0-0.2-0.1-0.3-0.2c0-0.1,0-0.3,0-0.4l9.6-28.8
		c0.1-0.3,0.4-0.4,0.6-0.3l6.1,2.1c0.1,0,0.2,0.1,0.3,0.2c0.1,0.1,0.1,0.3,0,0.4l-9.7,28.8C259.3,274.5,259.2,274.6,259,274.6z
		 M253.5,271.7l5.2,1.7l9.3-27.8l-5.2-1.7L253.5,271.7z"/>
	
		<rect x="263.7" y="238.2" transform="matrix(0.3185 -0.9479 0.9479 0.3185 -49.3247 417.8519)" class="st5" width="4.5" height="10"/>
	<path class="st5" d="M270,247.4h-0.2l-9.5-3.2c-0.1,0-0.2-0.1-0.3-0.2c-0.1-0.1-0.1-0.3,0-0.4l1.4-4.2c0.1-0.3,0.3-0.4,0.6-0.4
		l9.5,3.2c0.1,0,0.2,0.1,0.3,0.2c0.1,0.1,0.1,0.3,0,0.4l-1.4,4.2C270.3,247.3,270.2,247.4,270,247.4z M261.1,243.4l8.6,2.9l1.1-3.3
		l-8.6-2.9L261.1,243.4z"/>
	
		<rect x="259.1" y="260" transform="matrix(0.3185 -0.9479 0.9479 0.3185 -62.5869 439.4207)" class="st8" width="30.4" height="6.5"/>
	<path class="st5" d="M272.5,279.2c-0.1,0-0.1,0-0.2,0l-6.1-2.1c-0.1,0-0.2-0.1-0.3-0.2c-0.1-0.1-0.1-0.3,0-0.4l9.7-28.8
		c0-0.1,0.1-0.2,0.2-0.3c0.1-0.1,0.3-0.1,0.4,0l6.1,2.1c0.3,0.1,0.4,0.4,0.3,0.6c0,0,0,0,0,0l-9.7,28.7
		C272.9,279,272.7,279.2,272.5,279.2z M267,276.3l5.2,1.8l9.4-27.9l-5.2-1.8L267,276.3z"/>
	
		<rect x="277.2" y="242.8" transform="matrix(0.3185 -0.9479 0.9479 0.3185 -44.4044 433.7921)" class="st5" width="4.5" height="10"/>
	<path class="st5" d="M283.5,252h-0.2l-9.5-3.2c-0.1,0-0.2-0.1-0.3-0.2c-0.1-0.1-0.1-0.3,0-0.4l1.4-4.3c0.1-0.1,0.1-0.2,0.3-0.3
		c0.1-0.1,0.3-0.1,0.4,0l9.5,3.2c0.1,0,0.2,0.1,0.3,0.2c0.1,0.1,0.1,0.3,0,0.4l-1.5,4.2C283.9,251.9,283.7,252,283.5,252z
		 M274.6,248l8.6,2.9l1.1-3.3l-8.6-2.9L274.6,248z"/>
	
		<rect x="254.8" y="254.7" transform="matrix(0.3192 -0.9477 0.9477 0.3192 -70.0164 433.065)" class="st5" width="23.3" height="21.1"/>
	<path class="st5" d="M272.5,279.2c-0.1,0-0.1,0-0.2,0l-19.9-6.7c-0.1,0-0.2-0.1-0.3-0.2c0-0.1,0-0.3,0-0.4l7.4-22
		c0-0.1,0.1-0.2,0.2-0.3c0.1-0.1,0.3-0.1,0.4,0l19.9,6.7c0.3,0.1,0.4,0.4,0.3,0.6l-7.4,22C272.9,279.1,272.7,279.2,272.5,279.2z
		 M253.2,271.7l19,6.4l7-21l-19-6.4L253.2,271.7z"/>
	<polygon class="st8" points="254.3,286.7 235.8,280.5 245.6,264.2 256.3,267.8 	"/>
	<path class="st5" d="M254.3,287.2h-0.2l-18.6-6.2c-0.1,0-0.3-0.2-0.3-0.3c-0.1-0.1-0.1-0.3,0-0.4l9.9-16.3c0.1-0.2,0.4-0.3,0.6-0.2
		l10.7,3.6c0.2,0.1,0.4,0.3,0.3,0.5l-2,18.9c0,0.2-0.1,0.3-0.2,0.4C254.5,287.2,254.4,287.2,254.3,287.2z M236.5,280.2l17.4,5.8
		l1.9-17.9l-9.9-3.3L236.5,280.2z"/>
	
		<rect x="231.3" y="283.6" transform="matrix(0.3185 -0.9479 0.9479 0.3185 -113.4068 429.1216)" class="st9" width="20.8" height="19.6"/>
	<path class="st5" d="M247.7,306.9c-0.1,0-0.1,0-0.2,0l-18.5-6.3c-0.3-0.1-0.4-0.4-0.3-0.6l6.6-19.7c0-0.1,0.1-0.2,0.2-0.3
		c0.1-0.1,0.3-0.1,0.4,0l18.6,6.2c0.3,0.1,0.4,0.4,0.3,0.6l-6.6,19.7c0,0.1-0.1,0.2-0.2,0.3C247.9,306.9,247.8,306.9,247.7,306.9z
		 M229.8,299.8l17.6,5.9l6.3-18.8l-17.6-5.9L229.8,299.8z"/>
	
		<rect x="243.8" y="248" transform="matrix(0.3185 -0.9479 0.9479 0.3185 -69.796 415.6635)" class="st9" width="20.8" height="16.8"/>
	<path class="st5" d="M258.8,269.4h-0.2l-16-5.4c-0.1,0-0.2-0.1-0.3-0.2c-0.1-0.1-0.1-0.3,0-0.4l6.6-19.7c0.1-0.3,0.4-0.4,0.6-0.3
		l15.9,5.4c0.1,0,0.2,0.1,0.3,0.2c0,0.1,0,0.3,0,0.4l-6.6,19.7C259.2,269.2,259,269.4,258.8,269.4z M243.5,263.2l15,5l6.3-18.8
		l-15-5L243.5,263.2z"/>
	<polygon class="st8" points="281.4,295.8 262.9,289.6 272.7,273.3 283.4,276.9 	"/>
	<path class="st5" d="M281.4,296.3c-0.1,0-0.1,0-0.2,0l-18.6-6.3c-0.1,0-0.3-0.2-0.3-0.3c0-0.1,0-0.3,0-0.4l9.8-16.2
		c0.1-0.2,0.4-0.3,0.6-0.2l10.7,3.6c0.2,0.1,0.4,0.3,0.3,0.5l-2,18.9c0,0.2-0.1,0.3-0.2,0.4C281.6,296.2,281.5,296.3,281.4,296.3z
		 M263.6,289.3l17.4,5.8l1.9-17.9l-9.9-3.3L263.6,289.3z"/>
	
		<rect x="258.4" y="292.7" transform="matrix(0.3185 -0.9479 0.9479 0.3185 -103.5638 461.0242)" class="st9" width="20.8" height="19.6"/>
	<path class="st5" d="M274.8,316h-0.2l-18.6-6.2c-0.3-0.1-0.4-0.4-0.3-0.6l6.6-19.7c0-0.1,0.1-0.2,0.2-0.3c0.1-0.1,0.3-0.1,0.4,0
		l18.6,6.2c0.3,0.1,0.4,0.4,0.3,0.6l-6.6,19.7c0,0.1-0.1,0.2-0.3,0.3C274.9,316,274.9,316,274.8,316z M256.9,309l17.6,5.9l6.3-18.8
		l-17.6-5.9L256.9,309z"/>
	
		<rect x="270.9" y="257.1" transform="matrix(0.3185 -0.9479 0.9479 0.3185 -59.9452 447.5643)" class="st9" width="20.8" height="16.8"/>
	<path class="st5" d="M285.9,278.5c-0.1,0-0.1,0-0.2,0l-15.9-5.4c-0.1,0-0.2-0.1-0.3-0.2c-0.1-0.1-0.1-0.3,0-0.4l6.6-19.7
		c0.1-0.3,0.4-0.4,0.6-0.3l16,5.4c0.1,0,0.2,0.1,0.3,0.2c0.1,0.1,0.1,0.3,0,0.4l-6.6,19.7C286.4,278.4,286.2,278.5,285.9,278.5z
		 M270.6,272.3l15,5l6.3-18.8l-15-5L270.6,272.3z"/>
	<path class="st4" d="M243.2,242.5c0,0-2.2,3.6-1.5,4.6s6.9,4.4,7.8,4.7s3.3-1,3.2-2.7s-5-5.2-6.5-6.1S243.8,242,243.2,242.5z"/>
	<path class="st5" d="M249.7,252.4c-0.1,0-0.3,0-0.4,0c-1-0.3-7.3-3.8-8.1-4.9s1-4.2,1.5-5.1c0,0,0.1-0.1,0.1-0.1
		c1-0.8,2-0.4,3.5,0.5c0.8,0.5,6.6,4.4,6.7,6.5c0,0.9-0.4,1.8-1.2,2.3C251.3,252,250.5,252.3,249.7,252.4z M243.6,242.9
		c-1,1.7-1.7,3.6-1.5,4c0.5,0.9,6.6,4.2,7.5,4.5c0.6,0,1.3-0.3,1.7-0.7c0.5-0.3,0.8-0.9,0.8-1.5c-0.1-1.2-4.2-4.5-6.2-5.7
		C244.4,242.6,243.9,242.6,243.6,242.9L243.6,242.9z"/>
	<path class="st4" d="M239.8,249.6c0,0-1.1,4-0.1,4.8s7.9,2.3,8.8,2.3s2.9-1.9,2.3-3.5s-6.3-3.6-8-4S240.2,248.9,239.8,249.6z"/>
	<path class="st5" d="M248.4,257.2c-1,0-8.1-1.5-9.1-2.4s-0.3-4.3,0-5.3c0-0.1,0-0.1,0.1-0.2c0.7-1,1.8-0.9,3.5-0.6
		c0.9,0.2,7.6,2.3,8.3,4.3c0.3,0.9,0.1,1.8-0.4,2.5C250.2,256.4,249.4,257,248.4,257.2L248.4,257.2z M240.2,249.8
		c-0.5,2-0.6,3.9-0.3,4.2c0.8,0.7,7.5,2.2,8.4,2.1c0.6-0.2,1.1-0.6,1.5-1.2c0.4-0.5,0.5-1.1,0.4-1.6c-0.4-1.2-5.4-3.1-7.6-3.7
		C240.9,249.3,240.5,249.5,240.2,249.8L240.2,249.8z"/>
	<path class="st4" d="M237.9,256.6c0,0-1.1,4-0.1,4.8s7.9,2.3,8.8,2.3s2.9-1.9,2.3-3.5s-6.2-3.6-8-4S238.3,255.9,237.9,256.6z"/>
	<path class="st5" d="M246.5,264.2c-1,0-8.1-1.5-9.1-2.4s-0.3-4.3,0-5.3c0-0.1,0-0.1,0.1-0.2c0.7-1,1.8-0.9,3.5-0.6
		c0.9,0.2,7.6,2.3,8.3,4.3c0.3,0.9,0.1,1.8-0.4,2.5C248.3,263.4,247.5,264,246.5,264.2L246.5,264.2z M238.3,256.8
		c-0.5,2-0.6,3.9-0.3,4.2c0.8,0.7,7.5,2.1,8.4,2.1l0,0c0.6-0.2,1.2-0.6,1.5-1.2c0.4-0.5,0.5-1.1,0.4-1.6c-0.4-1.2-5.4-3.1-7.6-3.7
		C239,256.3,238.6,256.5,238.3,256.8L238.3,256.8z"/>
	<path class="st4" d="M238.8,263.3c0,0-1,4-0.1,4.8s7.9,2.3,8.8,2.3s2.9-1.9,2.3-3.5s-6.3-3.6-8-4S239.2,262.6,238.8,263.3z"/>
	<path class="st5" d="M247.4,270.9c-1,0-8.1-1.5-9.1-2.4s-0.3-4.3,0-5.3c0-0.1,0-0.1,0.1-0.2c0.7-1,1.8-1,3.5-0.6
		c0.9,0.2,7.6,2.3,8.3,4.3c0.3,0.9,0.1,1.8-0.4,2.5C249.2,270.1,248.4,270.7,247.4,270.9L247.4,270.9z M239.2,263.5
		c-0.5,2-0.6,3.9-0.3,4.2c0.8,0.7,7.5,2.1,8.4,2.1l0,0c0.6-0.2,1.1-0.6,1.5-1.2c0.4-0.5,0.5-1.1,0.4-1.6c-0.4-1.1-5.4-3.1-7.6-3.7
		C239.9,263,239.4,263.2,239.2,263.5z"/>
</g>
</svg>
